<?xml version="1.0" standalone="no"?>
<!DOCTYPE svg PUBLIC "-//W3C//DTD SVG 20010904//EN"
 "http://www.w3.org/TR/2001/REC-SVG-20010904/DTD/svg10.dtd">
<svg version="1.0" xmlns="http://www.w3.org/2000/svg"
 width="640.000000pt" height="640.000000pt" viewBox="0 0 640.000000 640.000000"
 preserveAspectRatio="xMidYMid meet">

<g transform="translate(0.000000,640.000000) scale(0.100000,-0.100000)"
fill="#000000" stroke="none">
<path d="M2897 6379 c4 -13 8 -18 11 -10 2 7 -1 18 -6 23 -8 8 -9 4 -5 -13z"/>
<path d="M2919 6366 c-7 -19 -16 -33 -21 -30 -7 5 -12 -10 -9 -28 2 -13 -17
-9 -23 5 -4 6 -4 -3 -1 -22 l5 -34 -27 29 c-18 20 -28 25 -31 15 -2 -7 1 -18
7 -24 13 -13 15 -37 3 -37 -5 0 -15 11 -22 25 -7 14 -20 25 -29 24 -11 0 -12
-2 -3 -6 6 -2 12 -14 12 -25 0 -17 -2 -18 -15 -4 -8 8 -16 27 -16 43 -2 25 -2
25 -6 5 -4 -21 -7 -22 -21 -10 -9 8 -30 20 -47 26 l-30 12 25 -21 25 -22 -29
7 c-20 5 -32 3 -38 -6 -8 -10 -11 -10 -15 0 -7 17 -23 15 -23 -4 0 -8 -4 -12
-10 -9 -5 3 -10 1 -10 -5 0 -7 -8 -9 -20 -5 -11 4 -20 2 -20 -4 0 -6 -7 -11
-15 -11 -8 0 -15 7 -15 15 0 8 -8 15 -17 15 -16 0 -16 -2 -3 -11 11 -8 12 -12
3 -16 -17 -6 -16 -30 0 -40 20 -12 28 -50 10 -50 -9 0 -11 7 -8 21 5 17 3 16
-9 -4 -14 -23 -13 -26 5 -34 22 -11 26 -31 4 -22 -11 4 -15 -2 -15 -24 0 -17
-5 -30 -11 -30 -5 0 -7 5 -4 10 3 6 -1 13 -10 17 -10 3 -21 0 -26 -8 -7 -12
-9 -11 -9 2 0 8 5 20 11 26 14 14 -2 24 -20 14 -19 -12 -5 -71 17 -71 9 -1 31
-12 47 -26 l30 -26 -51 26 c-28 14 -54 32 -58 41 -3 9 -10 13 -16 10 -5 -3
-10 -1 -10 6 0 19 -33 -20 -53 -64 -10 -21 -15 -46 -12 -57 4 -11 2 -20 -4
-20 -6 0 -11 19 -11 43 l0 42 -21 -45 c-17 -37 -18 -52 -10 -84 6 -24 6 -46 1
-55 -6 -10 -10 -11 -10 -3 0 6 -4 12 -9 12 -5 0 -9 -10 -9 -22 0 -13 -1 -35
-3 -50 -3 -26 -5 -27 -26 -13 -30 20 -36 19 -28 -5 5 -16 3 -19 -11 -13 -14 5
-15 3 -4 -17 11 -20 10 -22 -4 -17 -21 8 -20 -12 2 -30 16 -13 15 -14 -5 -8
-19 5 -23 2 -23 -14 0 -12 7 -21 15 -21 26 0 16 -18 -17 -29 -42 -15 -29 -25
16 -13 21 6 34 7 31 1 -4 -5 -13 -9 -21 -9 -8 0 -14 -9 -14 -20 0 -12 -7 -20
-16 -20 -10 0 -14 5 -10 15 4 13 2 14 -15 5 -11 -6 -17 -15 -14 -21 4 -5 -1
-9 -9 -9 -20 0 -31 -19 -18 -32 9 -9 26 -14 62 -18 8 -1 4 -5 -10 -10 -16 -5
-33 -2 -49 7 -28 18 -40 8 -46 -38 -2 -19 -11 -52 -18 -74 -18 -51 -29 -144
-31 -261 -2 -107 7 -152 17 -81 13 97 31 112 125 107 28 -1 34 3 50 37 9 21
31 58 48 83 17 25 35 56 39 70 10 32 243 257 304 292 60 36 89 57 121 91 14
16 33 29 41 31 8 1 25 8 38 15 19 11 22 11 15 -1 -5 -8 3 -6 20 6 16 10 45 19
65 21 144 11 242 25 262 36 9 5 77 11 150 14 74 3 150 7 169 8 122 5 347 -70
498 -167 62 -40 175 -165 250 -278 63 -94 137 -228 126 -228 -2 0 15 -35 38
-77 23 -43 46 -98 53 -123 11 -44 12 -45 68 -59 55 -13 57 -15 57 -46 l0 -33
-47 16 c-74 23 -78 26 -84 74 -9 59 -53 150 -90 188 -34 34 -92 53 -206 70
-43 6 -109 15 -147 21 -38 5 -75 14 -81 19 -16 13 -95 24 -95 13 0 -5 -33 -15
-73 -21 -39 -7 -96 -24 -126 -38 -51 -23 -101 -65 -101 -84 0 -5 -6 -15 -14
-23 -14 -13 -19 -66 -17 -179 1 -36 5 -48 16 -48 8 0 15 -5 15 -11 0 -5 -4 -7
-10 -4 -36 23 44 -181 85 -215 21 -18 19 -35 -2 -19 -15 12 -15 10 1 -8 10
-12 23 -21 30 -20 6 1 10 -3 9 -10 -2 -7 4 -10 13 -6 13 5 13 7 2 14 -8 5 -9
9 -2 9 6 0 17 -7 24 -15 26 -31 174 -92 255 -105 68 -10 91 -10 155 3 41 9 76
21 78 27 3 8 8 8 17 0 16 -13 84 18 121 55 12 13 25 21 28 19 3 -2 4 -1 1 2
-8 12 16 45 27 38 7 -5 8 -2 4 5 -5 7 0 21 9 31 10 11 29 55 44 99 l27 81 12
-88 c7 -48 16 -136 22 -197 23 -271 22 -263 32 -230 5 17 11 53 14 80 4 50 11
106 14 115 2 3 2 8 1 13 -2 15 23 102 35 122 15 24 36 168 29 198 -3 12 0 40
8 62 7 22 14 59 16 82 2 49 20 89 50 109 12 9 21 23 20 32 0 14 -2 14 -8 -2
-7 -18 -8 -18 -14 -2 -4 10 -7 31 -7 47 0 17 -5 39 -10 50 -9 16 -7 21 11 27
20 8 20 9 5 15 -11 4 -16 13 -13 22 6 13 -8 29 -62 75 -16 13 -19 20 -10 20
17 0 20 40 4 40 -5 1 -1 6 10 13 11 7 21 23 23 36 l2 25 -25 -24 c-18 -17 -24
-19 -20 -8 5 13 0 19 -19 24 -14 3 -26 10 -26 14 0 5 -10 6 -22 2 -14 -3 -19
-2 -14 6 4 7 11 12 17 12 5 0 18 9 28 19 17 17 18 21 5 32 -16 13 -19 34 -4
24 6 -3 7 1 4 9 -4 9 1 18 10 22 9 3 16 10 16 15 0 4 -7 6 -15 3 -10 -4 -15 0
-15 16 0 13 -4 19 -11 14 -9 -5 -10 1 -5 20 7 29 0 66 -13 66 -4 0 -7 -16 -8
-36 -1 -20 -8 -44 -17 -52 -15 -15 -16 -14 -12 13 5 42 24 85 36 85 17 0 11
42 -9 64 -10 12 -30 41 -44 66 -16 29 -33 46 -47 48 -14 2 -20 0 -16 -7 4 -6
2 -11 -4 -11 -8 0 -11 16 -8 45 2 32 0 44 -9 41 -7 -3 -15 4 -18 15 -4 10 -13
19 -21 19 -8 0 -13 4 -10 8 2 4 -4 9 -15 9 -19 2 -25 -11 -31 -66 -2 -14 -9
-27 -17 -29 -10 -3 -12 1 -8 17 3 11 1 24 -4 27 -5 3 -9 2 -8 -3 1 -4 1 -17 0
-27 -2 -34 -14 -8 -18 40 -3 39 -1 45 12 41 8 -4 15 -1 15 5 0 7 5 6 15 -2 12
-10 15 -10 15 3 0 9 -9 19 -20 22 -11 3 -20 13 -20 21 0 14 -2 14 -15 0 -8 -8
-15 -19 -15 -25 0 -6 -8 -11 -17 -11 -14 0 -15 -2 -5 -9 15 -9 24 -78 11 -87
-5 -3 -9 2 -9 10 0 9 -5 16 -10 16 -6 0 -8 11 -4 25 6 24 -10 37 -18 14 -2 -5
-11 -7 -21 -3 -10 3 -16 11 -14 18 2 6 -6 18 -17 28 -18 15 -19 19 -6 28 13 9
13 10 0 10 -13 0 -13 1 0 10 10 7 12 12 4 18 -6 4 -14 23 -17 42 -6 30 -5 32
5 15 7 -11 13 -22 13 -25 1 -13 24 -44 25 -33 0 6 -4 14 -10 18 -6 3 -6 15 0
30 5 13 6 26 2 29 -5 3 -8 35 -7 73 2 71 -8 96 -37 101 -16 2 -18 -6 -18 -58
0 -37 -4 -60 -11 -60 -6 0 -8 -7 -4 -17 4 -13 3 -15 -4 -8 -7 7 -8 22 -1 45
15 53 13 80 -7 81 -15 0 -15 2 2 9 17 7 17 9 3 9 -10 1 -24 -12 -33 -29 -9
-16 -18 -30 -21 -30 -4 0 -4 14 -2 30 3 19 0 30 -7 30 -8 0 -11 -10 -8 -27 l4
-28 -13 25 -14 25 -347 2 c-191 1 -354 0 -362 -3 -8 -4 -15 -12 -15 -19 0 -8
-9 -17 -21 -20 -15 -5 -20 -13 -17 -30 4 -21 3 -22 -18 -13 -21 10 -22 13 -9
32 8 11 15 28 15 38 0 16 -10 18 -89 18 l-90 0 -12 -34z m1111 -17 c0 -6 -4
-7 -10 -4 -5 3 -10 11 -10 16 0 6 5 7 10 4 6 -3 10 -11 10 -16z m17 -1 c-3 -8
-6 -5 -6 6 -1 11 2 17 5 13 3 -3 4 -12 1 -19z m-1323 -83 c3 -8 1 -15 -5 -15
-6 0 -17 7 -25 15 -14 13 -13 15 4 15 11 0 22 -7 26 -15z m-69 -25 c3 -6 -1
-7 -9 -4 -18 7 -21 14 -7 14 6 0 13 -4 16 -10z m-111 -33 c4 -18 0 -36 -10
-50 l-16 -22 7 23 c3 12 2 22 -3 22 -10 0 -24 39 -17 50 11 17 34 4 39 -23z
m201 22 c11 -17 -1 -21 -15 -4 -8 9 -8 15 -2 15 6 0 14 -5 17 -11z m-170 -28
c-6 -5 -25 10 -25 20 0 5 6 4 14 -3 8 -7 12 -15 11 -17z m55 25 c0 -2 -7 -7
-16 -10 -8 -3 -12 -2 -9 4 6 10 25 14 25 6z m85 -18 c5 4 5 2 2 -5 -4 -6 -1
-13 5 -16 7 -2 10 -7 7 -11 -3 -3 -16 6 -30 21 -13 15 -17 22 -8 15 9 -6 20
-8 24 -4z m1245 -8 c0 -5 -4 -10 -10 -10 -5 0 -10 5 -10 10 0 6 5 10 10 10 6
0 10 -4 10 -10z m-1363 -26 c-3 -3 -12 -4 -19 -1 -8 3 -5 6 6 6 11 1 17 -2 13
-5z m750 0 c-3 -3 -12 -4 -19 -1 -8 3 -5 6 6 6 11 1 17 -2 13 -5z m633 -14 c0
-5 -2 -10 -4 -10 -3 0 -8 5 -11 10 -3 6 -1 10 4 10 6 0 11 -4 11 -10z m40 -86
c0 -8 -5 -12 -10 -9 -6 4 -8 11 -5 16 9 14 15 11 15 -7z m-1513 -26 c-3 -8 -6
-5 -6 6 -1 11 2 17 5 13 3 -3 4 -12 1 -19z m-147 -20 c-1 -26 -3 -30 -10 -16
-6 9 -7 23 -4 32 9 25 14 19 14 -16z m446 7 c-11 -8 -25 -15 -31 -15 -6 0 -19
-10 -29 -21 -13 -16 -15 -24 -6 -29 9 -5 9 -9 1 -14 -6 -4 -11 -2 -11 4 0 6
-5 8 -12 3 -20 -12 -48 -14 -48 -4 0 5 9 13 20 16 11 3 20 10 20 14 0 5 9 19
19 33 15 18 30 25 58 26 35 1 37 0 19 -13z m1214 5 c0 -5 -12 -10 -26 -10 -14
0 -23 4 -19 10 3 6 15 10 26 10 10 0 19 -4 19 -10z m264 -35 c3 -8 2 -14 -2
-14 -20 3 -31 -3 -35 -18 -3 -12 -5 -9 -6 8 0 14 2 29 6 32 11 12 31 8 37 -8z
m-1754 -5 c8 -5 11 -10 5 -10 -5 0 -17 5 -25 10 -8 5 -10 10 -5 10 6 0 17 -5
25 -10z m1743 -35 c-3 -9 -8 -14 -10 -11 -3 3 -2 9 2 15 9 16 15 13 8 -4z
m104 -87 c-3 -8 -6 -5 -6 6 -1 11 2 17 5 13 3 -3 4 -12 1 -19z m-120 -70 c-3
-8 -6 -5 -6 6 -1 11 2 17 5 13 3 -3 4 -12 1 -19z m173 2 c0 -5 -2 -10 -4 -10
-3 0 -8 5 -11 10 -3 6 -1 10 4 10 6 0 11 -4 11 -10z m-153 -52 c-3 -8 -6 -5
-6 6 -1 11 2 17 5 13 3 -3 4 -12 1 -19z m73 -102 c0 -3 -4 -8 -10 -11 -5 -3
-10 -1 -10 4 0 6 5 11 10 11 6 0 10 -2 10 -4z m120 -41 c0 -8 -2 -15 -4 -15
-2 0 -6 7 -10 15 -3 8 -1 15 4 15 6 0 10 -7 10 -15z m-10 -39 c0 -3 -4 -8 -10
-11 -5 -3 -10 -1 -10 4 0 6 5 11 10 11 6 0 10 -2 10 -4z m-2423 -113 c-9 -9
-20 -13 -24 -9 -4 4 -1 11 7 16 25 16 35 11 17 -7z m86 -213 c-3 -11 -10 -23
-16 -27 -5 -3 -8 -2 -5 3 3 5 8 17 11 27 9 24 16 22 10 -3z m2460 -45 c4 -8 2
-17 -3 -20 -6 -4 -10 -4 -10 -1 0 2 -3 11 -6 20 -3 9 -2 16 4 16 5 0 12 -7 15
-15z m-464 -47 c21 -7 29 -13 21 -18 -8 -5 -6 -9 7 -14 10 -3 28 -12 41 -20
l23 -13 -28 -6 c-30 -6 -60 9 -100 50 -13 12 -32 23 -41 23 -9 0 -24 5 -32 11
-18 12 55 4 109 -13z m-184 -159 c22 0 34 -3 28 -6 -19 -7 4 -43 27 -43 24 0
26 -15 4 -24 -33 -12 -94 -5 -133 16 -37 20 -56 48 -31 48 5 0 7 7 4 15 -5 12
0 12 28 5 18 -6 51 -10 73 -11z m-202 -76 c-7 -2 -21 -2 -30 0 -10 3 -4 5 12
5 17 0 24 -2 18 -5z m196 -22 c9 -6 10 -11 2 -15 -6 -4 -11 -2 -11 4 0 6 -11
8 -27 5 -23 -4 -25 -4 -8 4 26 12 27 12 44 2z m-4 -81 c3 -5 2 -10 -4 -10 -5
0 -13 5 -16 10 -3 6 -2 10 4 10 5 0 13 -4 16 -10z m594 -77 c0 -25 -1 -26 -9
-8 -12 27 -12 35 0 35 6 0 10 -12 9 -27z m-42 -80 c-3 -10 -5 -4 -5 12 0 17 2
24 5 18 2 -7 2 -21 0 -30z m30 5 c-3 -8 -6 -5 -6 6 -1 11 2 17 5 13 3 -3 4
-12 1 -19z m-497 -188 c0 -5 -5 -10 -11 -10 -5 0 -7 5 -4 10 3 6 8 10 11 10 2
0 4 -4 4 -10z m57 4 c-3 -3 -12 -4 -19 -1 -8 3 -5 6 6 6 11 1 17 -2 13 -5z"/>
<path d="M2738 6343 c6 -2 18 -2 25 0 6 3 1 5 -13 5 -14 0 -19 -2 -12 -5z"/>
<path d="M2770 6316 c4 -4 16 -4 26 2 16 9 14 10 -8 9 -15 -1 -23 -6 -18 -11z"/>
<path d="M4370 6286 c-9 -12 -3 -14 37 -13 26 1 49 6 51 12 4 15 -75 16 -88 1z"/>
<path d="M4060 6271 c0 -5 5 -13 10 -16 6 -3 10 -2 10 4 0 5 -4 13 -10 16 -5
3 -10 2 -10 -4z"/>
<path d="M1400 6230 c-41 -6 -42 -7 -10 -8 19 0 58 3 85 8 47 7 48 7 10 7 -22
0 -60 -3 -85 -7z"/>
<path d="M2430 6210 c-8 -5 -11 -12 -8 -16 4 -3 14 1 23 10 18 17 9 21 -15 6z"/>
<path d="M683 6153 c9 -2 23 -2 30 0 6 3 -1 5 -18 5 -16 0 -22 -2 -12 -5z"/>
<path d="M608 6143 c6 -2 18 -2 25 0 6 3 1 5 -13 5 -14 0 -19 -2 -12 -5z"/>
<path d="M1943 6054 c-28 -31 -28 -30 1 -38 20 -5 54 6 95 32 10 6 -16 20 -44
25 -23 4 -35 -1 -52 -19z"/>
<path d="M2110 6065 c-9 -10 -1 -14 42 -17 46 -3 67 3 68 22 0 12 -99 8 -110
-5z"/>
<path d="M1667 6038 c-2 -7 1 -20 6 -29 9 -14 15 -15 36 -6 37 16 37 16 15 32
-24 18 -51 19 -57 3z"/>
<path d="M4305 6030 c-3 -5 -1 -10 4 -10 6 0 11 5 11 10 0 6 -2 10 -4 10 -3 0
-8 -4 -11 -10z"/>
<path d="M1448 6003 c7 -3 16 -2 19 1 4 3 -2 6 -13 5 -11 0 -14 -3 -6 -6z"/>
<path d="M1345 5990 c-3 -4 2 -11 11 -14 22 -8 34 -7 34 3 0 12 -39 21 -45 11z"/>
<path d="M1001 5969 c-43 -13 -35 -19 25 -20 28 -1 56 -8 66 -16 14 -13 17
-12 23 7 4 12 5 23 3 25 -10 10 -87 13 -117 4z"/>
<path d="M831 5941 l-24 -18 34 2 c19 0 48 5 64 10 l30 9 -25 7 c-40 11 -54
10 -79 -10z"/>
<path d="M540 5895 c0 -8 5 -15 10 -15 6 0 10 7 10 15 0 8 -4 15 -10 15 -5 0
-10 -7 -10 -15z"/>
<path d="M280 5870 c0 -5 5 -10 10 -10 6 0 10 5 10 10 0 6 -4 10 -10 10 -5 0
-10 -4 -10 -10z"/>
<path d="M10 5830 c6 -11 13 -20 15 -20 3 0 5 9 5 20 0 11 -7 20 -15 20 -13 0
-14 -4 -5 -20z"/>
<path d="M6240 5650 c-184 -21 -265 -32 -268 -35 -11 -10 11 -23 31 -18 63 15
127 22 234 27 124 6 163 12 163 27 0 10 -65 10 -160 -1z"/>
<path d="M5900 5611 c-24 -7 -24 -8 7 -12 21 -4 34 -1 37 8 6 14 -5 15 -44 4z"/>
<path d="M5848 5603 c7 -3 16 -2 19 1 4 3 -2 6 -13 5 -11 0 -14 -3 -6 -6z"/>
<path d="M5770 5590 c0 -5 6 -10 14 -10 8 0 18 5 21 10 3 6 -3 10 -14 10 -12
0 -21 -4 -21 -10z"/>
<path d="M5555 5570 c4 -6 11 -8 16 -5 14 9 11 15 -7 15 -8 0 -12 -5 -9 -10z"/>
<path d="M5225 5549 c-4 -6 -5 -13 -1 -16 8 -9 96 7 96 18 0 13 -87 11 -95 -2z"/>
<path d="M6287 5490 c-54 -10 -61 -24 -7 -16 24 4 46 9 49 11 9 10 -5 11 -42
5z"/>
<path d="M6377 5493 c-12 -11 -8 -31 8 -37 11 -4 15 1 15 19 0 24 -10 32 -23
18z"/>
<path d="M6075 5471 c-16 -3 -25 -9 -20 -13 13 -8 65 2 65 13 0 10 -1 10 -45
0z"/>
<path d="M6170 5465 c0 -19 21 -19 46 0 18 14 17 14 -13 15 -23 0 -33 -5 -33
-15z"/>
<path d="M5960 5451 c0 -5 11 -8 25 -8 14 0 28 3 31 8 3 5 -9 9 -25 9 -17 0
-31 -4 -31 -9z"/>
<path d="M5858 5443 c7 -3 16 -2 19 1 4 3 -2 6 -13 5 -11 0 -14 -3 -6 -6z"/>
<path d="M6363 5363 c9 -2 23 -2 30 0 6 3 -1 5 -18 5 -16 0 -22 -2 -12 -5z"/>
<path d="M2373 5343 c-29 -2 -53 -8 -53 -13 0 -5 -7 -7 -15 -4 -23 9 -112 -88
-146 -158 -26 -57 -29 -70 -24 -138 8 -131 61 -265 130 -330 34 -31 36 -32 20
-7 -9 15 -20 27 -24 27 -9 0 -31 52 -25 61 2 5 15 4 29 -1 30 -11 91 -2 106
16 17 20 26 17 31 -11 3 -13 1 -22 -3 -19 -5 3 -9 -2 -9 -10 0 -9 7 -16 15
-16 18 0 20 -20 3 -20 -19 -1 34 -29 54 -30 29 0 99 -42 94 -55 -3 -9 14 -11
67 -10 40 2 81 6 91 11 15 6 17 4 11 -7 -7 -11 -4 -10 11 1 10 9 43 27 72 40
30 13 58 32 63 42 5 10 16 18 24 18 7 0 23 12 35 28 12 15 29 27 38 27 10 0
17 5 18 10 1 19 16 45 25 45 5 0 9 -10 10 -22 0 -18 5 -15 19 17 20 43 19 55
-5 35 -27 -22 -16 7 15 40 32 35 60 113 60 170 0 85 -77 171 -199 219 -33 13
-62 27 -63 31 -4 11 -69 15 -89 6 -9 -4 -62 -2 -119 3 -99 11 -157 11 -267 4z
m152 -28 c-22 -8 -46 -15 -54 -15 -22 0 -82 -50 -75 -62 5 -7 2 -8 -6 -3 -8 5
-24 -5 -45 -28 -21 -22 -35 -32 -38 -24 -7 20 -92 -77 -107 -123 -8 -24 -16
-37 -18 -31 -3 9 -7 9 -18 0 -12 -10 -14 -4 -14 35 0 34 5 51 20 63 11 10 20
24 20 31 0 8 9 25 20 39 11 14 18 29 15 33 -8 13 59 69 100 83 24 9 80 15 140
15 99 1 99 1 60 -13z m512 -161 c-3 -3 -12 -4 -19 -1 -8 3 -5 6 6 6 11 1 17
-2 13 -5z m-369 -73 c30 -16 28 -29 -5 -38 l-28 -7 30 -7 30 -7 -27 -1 c-27
-1 -39 -23 -19 -35 11 -7 2 -46 -10 -46 -5 0 -9 6 -10 13 0 10 -2 10 -6 0 -9
-24 -21 -13 -19 17 0 19 6 30 16 31 8 0 3 5 -13 11 -19 7 -35 6 -57 -3 -16 -8
-25 -16 -19 -20 15 -9 -1 -40 -20 -37 -9 1 -22 -1 -30 -6 -10 -6 -12 -5 -7 2
4 7 1 12 -8 12 -20 0 -32 20 -17 30 7 4 11 11 10 16 -3 19 13 50 32 62 11 7
19 8 19 2 0 -19 49 -11 60 10 12 23 57 23 98 1z m225 -41 c10 0 15 -4 12 -10
-9 -15 -56 -11 -85 6 -25 15 -24 15 15 10 22 -3 48 -6 58 -6z m-670 -180 c-3
-11 -10 -23 -16 -27 -5 -3 -8 -2 -5 3 3 5 8 17 11 27 9 24 16 22 10 -3z"/>
<path d="M2525 5030 c-7 -12 19 -12 55 0 22 7 21 8 -12 9 -20 1 -40 -3 -43 -9z"/>
<path d="M2488 4983 c7 -3 16 -2 19 1 4 3 -2 6 -13 5 -11 0 -14 -3 -6 -6z"/>
<path d="M2873 5333 c9 -2 23 -2 30 0 6 3 -1 5 -18 5 -16 0 -22 -2 -12 -5z"/>
<path d="M2963 5323 c9 -2 23 -2 30 0 6 3 -1 5 -18 5 -16 0 -22 -2 -12 -5z"/>
<path d="M6250 5280 c-8 -4 -26 -13 -40 -18 l-25 -11 30 0 c20 -1 34 6 43 19
14 22 13 22 -8 10z"/>
<path d="M6317 5268 c-4 -12 -5 -23 -4 -23 1 -1 20 4 42 11 l40 12 -28 11
c-39 15 -44 14 -50 -11z"/>
<path d="M3468 5273 c12 -2 30 -2 40 0 9 3 -1 5 -23 4 -22 0 -30 -2 -17 -4z"/>
<path d="M3688 5253 c12 -2 30 -2 40 0 9 3 -1 5 -23 4 -22 0 -30 -2 -17 -4z"/>
<path d="M6111 5238 c0 -13 3 -17 6 -10 2 6 13 12 23 12 10 0 22 5 25 10 4 6
-7 10 -24 10 -26 0 -31 -4 -30 -22z"/>
<path d="M5915 5230 c-3 -5 3 -10 14 -10 11 0 23 5 26 10 3 6 -3 10 -14 10
-11 0 -23 -4 -26 -10z"/>
<path d="M6310 5230 c-30 -4 -109 -13 -175 -20 -187 -18 -212 -22 -189 -30 11
-4 42 -4 69 0 28 4 125 14 218 21 123 10 167 16 167 26 0 14 -8 14 -90 3z"/>
<path d="M3578 5223 c7 -3 16 -2 19 1 4 3 -2 6 -13 5 -11 0 -14 -3 -6 -6z"/>
<path d="M5718 5213 c7 -3 16 -2 19 1 4 3 -2 6 -13 5 -11 0 -14 -3 -6 -6z"/>
<path d="M3465 5160 c-16 -16 -27 -31 -24 -33 2 -2 17 11 32 30 36 41 31 43
-8 3z"/>
<path d="M5878 5173 c7 -3 16 -2 19 1 4 3 -2 6 -13 5 -11 0 -14 -3 -6 -6z"/>
<path d="M5390 5130 c-13 -8 -12 -10 3 -10 9 0 17 5 17 10 0 12 -1 12 -20 0z"/>
<path d="M2048 5123 c7 -3 16 -2 19 1 4 3 -2 6 -13 5 -11 0 -14 -3 -6 -6z"/>
<path d="M5286 5122 c-2 -4 13 -6 35 -4 21 2 39 6 39 8 0 7 -69 4 -74 -4z"/>
<path d="M2075 5110 c-4 -6 3 -10 14 -10 25 0 27 6 6 13 -8 4 -17 2 -20 -3z"/>
<path d="M5178 5113 c7 -3 16 -2 19 1 4 3 -2 6 -13 5 -11 0 -14 -3 -6 -6z"/>
<path d="M5103 5103 c9 -2 25 -2 35 0 9 3 1 5 -18 5 -19 0 -27 -2 -17 -5z"/>
<path d="M2032 5079 c-26 -10 -27 -17 -7 -38 11 -13 12 -26 5 -56 -22 -104
-30 -157 -34 -249 -4 -71 -10 -104 -21 -116 -11 -13 -15 -33 -13 -66 l3 -49
18 75 c35 144 37 155 41 195 2 25 8 40 17 40 17 0 80 198 77 239 -3 24 -8 29
-33 31 -17 1 -40 -1 -53 -6z m28 -203 c0 -11 -19 -15 -25 -6 -3 5 1 10 9 10 9
0 16 -2 16 -4z"/>
<path d="M4938 5083 c7 -3 16 -2 19 1 4 3 -2 6 -13 5 -11 0 -14 -3 -6 -6z"/>
<path d="M1966 4943 c-6 -14 -5 -15 5 -6 7 7 10 15 7 18 -3 3 -9 -2 -12 -12z"/>
<path d="M1971 4884 c0 -21 4 -48 9 -59 6 -13 7 -1 3 35 -7 66 -13 78 -12 24z"/>
<path d="M3412 4799 c6 -16 12 -29 13 -27 6 6 -8 58 -16 58 -4 0 -3 -14 3 -31z"/>
<path d="M1972 4760 c0 -14 2 -19 5 -12 2 6 2 18 0 25 -3 6 -5 1 -5 -13z"/>
<path d="M2929 4683 l-24 -28 28 24 c25 23 32 31 24 31 -2 0 -14 -12 -28 -27z"/>
<path d="M2340 4636 c0 -3 9 -10 20 -16 11 -6 20 -8 20 -6 0 3 -9 10 -20 16
-11 6 -20 8 -20 6z"/>
<path d="M2405 4600 c3 -4 14 -10 25 -13 11 -3 18 -2 15 3 -3 4 -14 10 -25 13
-11 3 -18 2 -15 -3z"/>
<path d="M2770 4593 c-28 -13 -31 -17 -16 -21 10 -2 21 0 25 5 3 6 15 15 26
21 30 17 5 14 -35 -5z"/>
<path d="M3214 4575 c-4 -8 -16 -15 -28 -16 -11 0 -15 -3 -8 -6 6 -2 12 -9 12
-15 0 -6 -7 -8 -15 -4 -17 6 -21 -9 -5 -19 15 -9 13 -88 -2 -82 -8 2 -12 18
-11 38 4 53 -18 73 -84 76 -54 2 -97 -14 -115 -42 -3 -6 -18 -23 -32 -38 -14
-15 -26 -37 -26 -47 0 -10 -5 -22 -11 -26 -11 -6 -8 -44 5 -76 5 -11 1 -18
-13 -23 -28 -9 -27 -31 2 -39 23 -5 81 7 103 22 6 4 16 17 23 30 10 18 9 22
-4 22 -8 0 -15 4 -15 10 0 13 64 24 105 17 40 -6 91 -37 76 -46 -6 -4 -7 -12
-1 -21 6 -9 10 -10 10 -3 0 7 12 11 28 9 21 -1 27 -6 25 -24 -2 -16 4 -25 21
-32 14 -5 30 -18 36 -30 6 -11 20 -20 31 -20 11 0 18 -4 15 -8 -7 -11 66 -83
86 -86 22 -3 50 -34 43 -46 -6 -9 1 -12 22 -9 4 0 10 -8 14 -18 4 -10 7 2 6
29 -1 29 -7 50 -15 53 -10 3 -12 -1 -7 -18 3 -12 3 -17 -2 -11 -4 6 -16 13
-25 17 -10 3 -18 14 -18 24 0 14 2 15 9 5 6 -11 9 -9 13 6 4 15 2 19 -8 15
-10 -4 -14 3 -14 21 0 21 5 26 26 26 16 0 36 12 55 32 27 30 28 34 12 45 -13
10 -14 13 -2 13 10 1 8 4 -5 11 -15 9 -16 13 -5 20 11 7 12 14 1 41 -8 18 -14
38 -16 45 -1 7 -5 16 -9 19 -4 4 -7 14 -7 21 0 8 -7 21 -15 29 -8 9 -15 29
-15 45 0 19 -5 29 -15 29 -8 0 -15 3 -15 8 0 4 -29 7 -64 7 -36 0 -62 3 -60 7
7 10 -31 28 -61 28 -14 0 -28 -7 -31 -15z m-219 -255 c3 -5 -1 -10 -9 -10 -9
0 -16 5 -16 10 0 6 4 10 9 10 6 0 13 -4 16 -10z"/>
<path d="M2495 4572 c9 -9 176 -19 205 -12 19 4 33 9 30 10 -8 3 -239 5 -235
2z"/>
<path d="M3600 4543 c0 -22 65 -65 97 -65 13 0 23 -4 23 -8 0 -13 65 -31 85
-24 14 6 16 4 10 -6 -6 -10 -4 -12 9 -7 10 4 27 7 39 8 14 1 10 4 -13 10 -19
5 -46 6 -58 3 -13 -2 -21 -1 -18 4 3 5 -21 19 -53 31 -32 12 -64 28 -71 36
-15 18 -34 20 -24 3 4 -7 3 -8 -5 -4 -6 4 -9 11 -6 16 3 5 1 11 -5 15 -5 3
-10 -2 -10 -12z m61 -40 c13 -17 13 -17 -6 -3 -11 8 -22 16 -24 17 -2 2 0 3 6
3 6 0 17 -8 24 -17z"/>
<path d="M4110 4471 c0 -6 -7 -7 -17 -4 -12 5 -14 3 -8 -7 6 -10 4 -12 -8 -7
-22 8 -78 -3 -71 -14 3 -5 14 -9 25 -9 12 0 17 4 13 11 -4 7 0 9 14 5 25 -8
81 17 63 28 -6 4 -11 3 -11 -3z"/>
<path d="M3865 4430 c-22 -5 -6 -8 53 -9 53 -1 81 3 77 9 -7 11 -85 11 -130 0z"/>
<path d="M3089 4285 c-3 -5 -6 -23 -7 -40 -1 -25 0 -27 9 -12 6 10 9 28 7 40
-2 12 -6 18 -9 12z"/>
<path d="M3117 4283 c-12 -11 -8 -23 8 -23 8 0 15 7 15 15 0 16 -12 20 -23 8z"/>
<path d="M3010 4230 c0 -6 7 -10 15 -10 8 0 15 2 15 4 0 2 -7 6 -15 10 -8 3
-15 1 -15 -4z"/>
<path d="M3148 4203 c7 -3 16 -2 19 1 4 3 -2 6 -13 5 -11 0 -14 -3 -6 -6z"/>
<path d="M1820 4172 c-30 -31 -31 -33 -25 -104 8 -102 15 -138 24 -138 5 0 11
7 15 15 3 9 0 15 -10 15 -13 0 -13 2 0 22 9 12 16 36 16 53 1 16 7 57 15 90
18 74 7 89 -35 47z"/>
<path d="M3178 4173 c7 -3 16 -2 19 1 4 3 -2 6 -13 5 -11 0 -14 -3 -6 -6z"/>
<path d="M3158 4047 c-7 -8 -28 -13 -46 -12 -18 1 -35 -2 -38 -7 -3 -4 -10 -6
-15 -3 -5 4 -14 3 -21 -1 -17 -11 -58 -14 -58 -5 0 3 -12 8 -26 9 -29 2 -84
-23 -84 -39 0 -6 -6 -9 -14 -6 -8 3 -20 -1 -28 -10 -12 -15 -72 -46 -93 -48
-5 -1 -28 -9 -49 -18 -22 -10 -42 -14 -45 -11 -3 4 -1 9 6 11 7 2 9 12 6 21
-6 15 -5 15 10 3 13 -10 17 -10 17 -1 0 10 3 10 14 1 18 -15 24 -5 24 44 0 33
-2 36 -9 18 -12 -32 -21 -29 -13 5 6 25 5 26 -8 8 -9 -12 -21 -17 -32 -13 -20
8 -76 -44 -76 -70 0 -10 -5 -25 -11 -33 -8 -12 -9 -10 -4 8 3 12 2 22 -3 22
-16 0 -35 -58 -28 -86 5 -18 3 -24 -5 -18 -9 5 -10 1 -7 -14 4 -12 3 -22 -1
-22 -3 0 -5 -18 -3 -40 2 -22 8 -40 12 -40 4 0 6 17 5 38 l-4 37 20 -25 20
-25 -7 28 c-7 29 -3 32 26 17 15 -8 18 -7 15 2 -10 29 30 55 109 72 61 13 84
23 105 45 31 34 113 61 180 61 25 0 89 -7 141 -16 52 -8 127 -17 167 -18 58
-3 85 -10 140 -38 38 -19 73 -45 80 -58 12 -25 84 -57 127 -57 22 0 24 2 15
23 -5 14 -18 37 -30 53 -12 16 -19 35 -16 43 4 9 6 7 6 -4 1 -20 17 -24 23 -7
2 5 11 7 21 3 10 -3 16 -13 13 -20 -3 -7 0 -11 7 -8 7 2 18 -8 24 -23 7 -16
18 -36 25 -45 10 -14 10 -22 0 -38 -10 -17 -9 -23 8 -40 26 -26 25 -28 -7 -22
-25 4 -26 3 -11 -9 10 -8 20 -31 22 -51 3 -21 10 -46 15 -56 8 -15 8 -77 1
-77 -1 0 -3 -10 -4 -22 -2 -13 1 -23 6 -23 4 0 8 5 8 12 0 6 3 8 7 4 5 -4 0
-14 -10 -21 -17 -12 -17 -14 3 -28 16 -11 18 -16 8 -21 -9 -4 -9 -8 -2 -11 8
-4 8 -15 0 -40 -12 -37 -26 -47 -26 -17 0 26 -23 72 -34 69 -5 -2 -10 -11 -12
-20 -1 -9 1 -15 6 -12 4 3 10 -1 12 -8 5 -14 -27 -48 -38 -39 -4 4 -4 -4 -1
-18 5 -22 3 -26 -19 -28 -20 -1 -25 2 -20 13 3 8 1 15 -3 15 -14 0 -20 -25
-10 -41 5 -8 8 -25 7 -39 -1 -23 -1 -24 -5 -2 -2 12 -10 22 -18 22 -7 0 -16 6
-19 13 -3 6 -4 3 -1 -9 3 -12 -1 -26 -9 -33 -12 -10 -17 -7 -30 16 -11 20 -15
23 -16 10 0 -15 -2 -16 -14 -5 -8 7 -12 16 -10 20 2 4 0 10 -6 13 -6 4 -9 1
-8 -6 2 -6 -3 -14 -11 -17 -8 -3 -11 0 -7 7 4 6 2 11 -3 11 -6 0 -11 -8 -11
-17 0 -15 -2 -16 -10 -3 -9 13 -10 13 -10 0 0 -9 -6 -5 -13 9 -14 28 -41 42
-31 17 4 -12 2 -15 -9 -10 -9 3 -18 12 -21 20 -3 8 -13 14 -23 14 -17 -1 -17
-1 0 -14 9 -7 17 -16 17 -20 0 -3 -8 -2 -17 3 -41 22 -83 39 -83 34 0 -4 7
-14 15 -23 14 -16 14 -18 -5 -23 -17 -4 -20 0 -20 28 0 26 -5 34 -22 38 -21 5
-21 5 -5 -7 9 -7 17 -24 16 -37 0 -22 -1 -23 -9 -4 -8 18 -9 18 -10 -5 -2 -18
-4 -20 -7 -7 -2 9 -8 17 -13 17 -4 0 -6 -10 -2 -22 3 -14 1 -19 -6 -14 -6 4
-21 2 -32 -4 -16 -9 -18 -8 -14 5 4 8 1 15 -5 15 -6 0 -11 -8 -12 -17 0 -11
-3 -13 -6 -5 -7 18 -33 15 -34 -5 0 -10 -5 -4 -10 12 -5 17 -7 36 -4 43 2 6 0
12 -5 12 -6 0 -10 -10 -10 -22 0 -16 -3 -19 -8 -10 -5 8 -16 10 -27 6 -14 -6
-17 -4 -12 9 3 9 2 19 -3 22 -10 6 -14 -7 -11 -32 2 -12 -16 -26 -36 -29 -7
-1 -13 2 -13 8 0 5 -12 9 -27 8 -16 -1 -30 -1 -33 0 -24 8 -40 6 -40 -6 0 -9
4 -12 10 -9 6 3 7 -1 4 -9 -8 -20 -24 -21 -24 -2 0 8 -7 16 -15 20 -12 4 -15
-3 -15 -32 0 -52 -15 -72 -25 -35 -5 15 -9 31 -9 35 -2 12 -16 22 -16 10 0 -6
-11 -9 -26 -6 -16 3 -23 1 -19 -6 3 -5 1 -18 -5 -27 -10 -16 -10 -16 -6 2 4
14 -1 25 -15 33 -12 8 -18 9 -14 3 8 -13 3 -14 -29 -1 -17 6 -27 6 -32 -2 -4
-7 -3 -8 4 -4 8 4 12 0 12 -11 0 -16 -1 -16 -17 0 -13 13 -14 19 -5 29 7 7 12
17 12 23 0 5 -5 3 -10 -5 -9 -13 -11 -13 -20 0 -6 10 -10 11 -10 3 0 -26 -20
-12 -20 15 0 21 -2 24 -10 12 -6 -10 -8 -4 -4 21 5 28 0 45 -20 77 -14 23 -26
48 -26 57 0 21 -54 47 -69 32 -19 -19 -12 -28 10 -15 17 11 23 11 26 0 3 -6 8
-10 13 -7 4 3 6 -4 3 -15 -3 -11 -9 -20 -13 -20 -4 0 -4 -16 0 -35 7 -30 6
-34 -6 -24 -8 6 -14 20 -14 30 0 11 -4 19 -8 19 -17 0 -21 -13 -11 -31 8 -15
4 -25 -17 -46 -18 -18 -29 -23 -32 -15 -2 7 -15 12 -28 12 -13 0 -24 5 -24 10
0 6 -4 10 -9 10 -5 0 -7 -9 -4 -20 4 -15 0 -20 -13 -20 -16 0 -17 2 -4 10 12
7 8 10 -15 10 -21 0 -26 -3 -16 -9 7 -5 11 -14 7 -20 -5 -7 -1 -9 11 -4 15 5
16 3 6 -8 -7 -7 -13 -21 -13 -31 0 -26 -20 -22 -21 5 l0 22 -10 -23 c-5 -13
-16 -30 -24 -38 -13 -14 -15 -13 -15 3 -1 12 -5 9 -15 -12 l-15 -30 6 43 c7
51 -2 54 -22 7 -8 -20 -18 -34 -22 -31 -5 3 -6 -9 -4 -26 3 -22 1 -29 -7 -23
-7 4 -10 12 -8 19 3 6 -1 20 -9 30 -7 11 -11 22 -9 27 3 4 0 11 -6 15 -8 5 -9
3 -4 -6 5 -9 2 -10 -14 -5 -12 3 -21 2 -21 -4 0 -5 9 -13 20 -16 11 -3 20 -11
20 -16 0 -6 -4 -7 -10 -4 -14 8 -13 -8 1 -22 9 -9 6 -10 -10 -6 -20 5 -21 3
-11 -21 14 -37 13 -39 -8 -18 -10 9 -17 22 -15 27 2 6 -3 19 -11 30 -11 14
-15 16 -16 6 0 -8 -16 3 -35 25 -19 21 -34 34 -35 27 0 -6 4 -13 9 -15 5 -1 3
-12 -5 -22 -10 -14 -17 -17 -25 -9 -15 15 -20 86 -7 94 7 5 7 12 -2 25 -9 16
-11 16 -6 2 3 -10 1 -20 -4 -23 -6 -4 -10 -1 -10 6 0 7 -3 10 -6 6 -4 -3 -3
-14 1 -24 11 -27 14 -73 4 -67 -5 3 -9 16 -9 28 0 13 -10 31 -22 40 -13 9 -18
14 -12 12 15 -7 27 21 14 29 -6 4 -10 11 -10 17 0 6 9 3 20 -7 16 -14 20 -15
20 -3 0 8 -8 23 -18 34 -13 13 -16 26 -12 39 9 24 -7 58 -22 49 -7 -5 -9 0 -6
13 3 11 0 20 -7 20 -7 0 -11 -16 -10 -43 1 -24 -1 -43 -4 -42 -18 2 -21 -4 -7
-17 19 -20 23 -19 29 7 4 12 9 19 13 15 4 -3 -1 -18 -11 -33 -27 -42 -28 -118
-1 -108 7 3 19 -2 26 -11 7 -9 8 -15 2 -15 -6 0 -13 6 -15 13 -3 6 -4 -2 -4
-20 1 -17 5 -29 10 -26 4 2 7 -5 7 -17 0 -13 4 -19 12 -14 7 4 8 3 4 -5 -6 -9
-11 -9 -21 -1 -12 10 -12 6 -2 -19 6 -17 17 -31 24 -31 7 0 13 -4 13 -10 0
-25 28 -93 43 -102 6 -3 15 -21 21 -40 8 -22 17 -33 30 -31 13 1 16 -4 13 -19
-4 -14 7 -32 39 -64 24 -25 49 -42 54 -39 6 3 10 1 10 -5 0 -12 11 -24 44 -50
18 -14 19 -13 12 5 -5 15 -4 17 4 9 7 -7 15 -36 20 -65 4 -30 8 -46 9 -36 0 9
5 17 9 17 12 0 9 -43 -3 -52 -6 -4 -2 -8 9 -8 12 0 16 -5 12 -16 -4 -11 -1
-14 13 -9 15 4 21 -3 31 -42 8 -27 18 -51 24 -55 7 -6 6 -11 -4 -18 -10 -6
-11 -10 -2 -10 6 0 12 -11 12 -24 0 -24 19 -38 42 -32 7 1 10 1 6 -1 -24 -13
29 -102 61 -104 10 0 11 -2 4 -6 -23 -9 -14 -20 28 -32 23 -7 39 -15 36 -18
-3 -2 10 -20 29 -38 19 -18 34 -38 34 -44 0 -6 9 -11 20 -11 12 0 24 -10 30
-24 5 -13 14 -27 20 -31 5 -3 7 -11 4 -17 -4 -7 -2 -8 4 -4 7 4 12 3 12 -2 0
-5 11 -14 25 -20 15 -7 25 -20 25 -32 0 -11 6 -20 13 -21 6 -1 1 -5 -13 -9
l-25 -8 27 -1 c15 -1 29 -5 33 -10 3 -5 34 -13 70 -16 36 -4 65 -11 65 -16 0
-5 -5 -9 -11 -9 -6 0 1 -13 17 -28 16 -15 35 -26 42 -24 6 2 12 -4 12 -13 0
-13 6 -16 26 -12 15 3 41 -1 58 -9 27 -11 28 -13 9 -14 -13 0 -23 -4 -23 -9 0
-10 192 -22 200 -12 3 3 25 7 50 8 25 1 74 4 110 8 61 6 64 5 40 -9 l-25 -15
31 -1 c17 0 37 7 44 15 7 8 20 15 29 15 11 0 7 -8 -14 -25 -30 -25 -20 -34 16
-14 21 11 43 17 92 26 15 3 27 8 27 12 0 12 53 6 58 -6 4 -13 -8 -17 -38 -14
-13 2 -13 0 -1 -8 18 -12 7 -23 -113 -114 -89 -67 -92 -68 -136 -62 -117 17
-194 26 -295 35 -362 33 -617 95 -840 204 -188 92 -285 180 -285 259 0 33 -2
37 -14 28 -8 -7 -22 -38 -31 -70 -15 -47 -22 -58 -39 -57 -40 1 -121 -17 -144
-32 -14 -9 -27 -11 -30 -6 -13 17 -126 16 -182 -1 -65 -20 -140 -57 -140 -68
0 -5 5 -5 12 -1 7 5 8 3 4 -5 -5 -7 -14 -10 -21 -8 -7 3 -38 -12 -70 -34 -32
-21 -62 -39 -66 -39 -5 0 -9 -6 -9 -12 0 -7 -18 -22 -40 -32 -22 -10 -37 -24
-33 -29 4 -7 -1 -8 -13 -3 -10 4 -15 4 -11 0 11 -11 -25 -33 -55 -34 -15 0
-39 -5 -55 -11 -15 -6 -57 -17 -93 -25 -36 -8 -69 -16 -75 -17 -5 -2 -16 -6
-22 -10 -7 -5 -13 -6 -13 -2 0 3 -8 1 -18 -4 -11 -6 -30 -12 -43 -15 -98 -18
-314 -83 -496 -147 -61 -21 -115 -39 -121 -39 -5 0 -15 -7 -22 -15 -6 -8 -15
-14 -18 -13 -4 1 -20 -4 -37 -11 -16 -6 -36 -14 -43 -16 -17 -6 -16 -403 1
-424 7 -9 8 -12 1 -8 -8 4 -11 -41 -13 -153 l-2 -160 24 -11 c19 -9 31 -7 55
5 23 12 33 13 38 4 5 -8 10 -6 15 8 6 15 7 14 6 -8 -1 -28 -20 -38 -32 -18
-10 16 -25 12 -19 -5 4 -8 1 -15 -6 -15 -6 0 -8 5 -5 10 8 13 -1 13 -26 0 -11
-6 -19 -7 -19 -1 0 5 -6 11 -13 14 -11 4 -14 -15 -15 -88 -1 -80 2 -94 16 -98
15 -4 15 -5 1 -6 -13 -1 -17 -12 -17 -43 -1 -24 5 -46 11 -50 9 -6 9 -8 0 -8
-9 0 -12 -44 -12 -170 l1 -169 101 1 c58 0 108 6 116 12 11 8 13 8 8 -1 -5 -8
53 -11 232 -12 l240 0 138 135 c76 75 197 183 268 241 114 92 153 131 155 155
0 12 -34 1 -38 -12 -3 -7 0 -10 7 -6 6 4 11 3 11 -3 0 -15 -20 -24 -21 -9 0 7
-4 4 -8 -6 -8 -21 -41 -31 -41 -13 0 7 -5 5 -10 -3 -8 -13 -10 -13 -10 0 0 11
-3 11 -12 2 -10 -10 -10 -15 2 -22 8 -5 12 -12 8 -15 -3 -3 -13 2 -23 11 -12
12 -13 19 -5 24 8 5 7 9 -4 13 -9 4 -16 12 -16 19 0 10 3 9 9 -1 5 -8 16 -11
25 -8 9 4 16 2 16 -3 0 -5 9 -7 20 -5 11 2 20 -2 21 -8 0 -7 8 7 18 31 9 23
20 40 23 36 10 -9 40 24 33 36 -3 5 -1 18 5 27 9 15 10 14 4 -6 -5 -19 -3 -23
10 -18 8 3 18 2 21 -3 13 -21 27 -9 22 18 -3 15 -2 34 4 42 6 11 9 12 9 2 0
-7 5 -10 12 -6 7 4 8 3 4 -5 -4 -6 -11 -9 -16 -6 -7 5 4 -53 12 -60 7 -7 49
35 44 44 -3 5 -2 19 2 32 l9 23 5 -22 c4 -12 2 -20 -3 -16 -5 3 -9 0 -9 -5 0
-27 57 13 75 53 10 21 13 23 9 7 -11 -44 13 -13 26 34 8 30 18 45 29 45 11 0
12 -3 4 -8 -12 -7 -37 -62 -28 -62 9 0 134 91 165 120 18 17 36 30 40 30 4 0
14 7 21 16 12 15 11 16 -9 10 -17 -6 -21 -4 -16 8 5 12 10 13 26 5 11 -6 23
-7 27 -2 3 4 23 21 44 36 21 16 34 33 31 39 -4 7 -2 8 4 4 6 -4 24 5 39 19 43
38 125 101 150 114 15 7 20 17 17 29 -4 12 -3 14 4 4 7 -11 19 -7 54 17 101
68 161 91 240 91 113 -1 190 -45 253 -145 49 -79 61 -147 40 -232 -4 -17 -1
-20 14 -16 23 6 38 -14 22 -30 -9 -9 -11 -8 -6 6 5 11 2 17 -8 17 -8 0 -39
-34 -69 -75 -30 -41 -57 -72 -60 -69 -4 3 -16 -8 -29 -25 -12 -17 -27 -27 -32
-24 -6 3 -7 2 -4 -4 4 -6 -8 -31 -25 -57 -29 -44 -47 -106 -30 -106 14 0 32
-39 22 -45 -6 -4 -9 -1 -8 5 2 7 -8 16 -22 21 -24 9 -24 9 -5 -7 20 -16 20
-16 -2 -9 -17 5 -23 2 -23 -9 0 -8 -4 -18 -10 -21 -7 -4 -7 3 0 20 6 15 10 29
10 33 -1 12 -40 -43 -40 -55 0 -7 -3 -13 -7 -14 -5 0 -16 -2 -25 -4 -10 -2
-18 -1 -18 1 0 12 93 144 98 140 3 -3 -3 -15 -13 -26 -10 -11 -16 -23 -12 -26
3 -3 21 18 39 48 50 77 50 78 41 78 -5 0 -17 -16 -27 -35 -11 -20 -22 -31 -26
-25 -4 6 -19 -6 -35 -30 -29 -42 -41 -51 -31 -22 5 11 -1 9 -17 -8 -29 -31
-39 -58 -25 -62 7 -3 4 -15 -8 -34 -13 -20 -14 -25 -3 -17 9 7 20 8 29 3 8 -5
19 -6 25 -3 5 2 -1 -5 -15 -16 -14 -11 -32 -21 -40 -22 -8 -1 -19 -3 -25 -4
-5 -2 -14 -3 -19 -4 -4 0 2 -10 15 -22 l24 -20 -27 16 c-18 11 -25 22 -21 33
3 9 -6 4 -20 -13 -16 -18 -24 -38 -22 -50 3 -11 2 -14 -1 -7 -5 10 -9 10 -22
0 -9 -7 2 12 23 43 34 47 42 54 53 42 14 -14 48 -9 67 9 6 6 0 7 -17 3 -30 -8
-33 -4 -18 25 5 10 7 25 4 33 -9 24 -91 -37 -126 -94 -16 -27 -32 -49 -35 -49
-3 0 2 12 12 26 25 38 11 40 -16 2 -13 -18 -27 -35 -31 -36 -4 -2 -8 -10 -8
-18 0 -8 -3 -13 -7 -13 -20 3 -24 -2 -13 -16 10 -12 15 -11 33 8 12 13 16 15
8 5 -7 -9 -11 -24 -8 -33 4 -8 1 -14 -5 -12 -17 3 -21 -22 -4 -29 13 -5 12 -9
-9 -26 -14 -11 -23 -23 -20 -28 3 -5 -3 -13 -12 -19 -14 -8 -15 -10 -3 -10 20
0 53 26 47 36 -3 5 11 19 31 31 l37 23 -29 -24 c-16 -14 -25 -30 -22 -36 4 -6
12 -9 17 -6 5 4 9 1 9 -5 0 -7 7 -9 16 -6 9 4 13 2 8 -5 -4 -7 -1 -10 7 -7 8
3 13 10 12 15 -1 5 7 10 18 10 11 1 17 -2 14 -8 -9 -13 9 -11 25 4 12 10 12 9
1 -5 -17 -22 -8 -23 23 -3 22 15 23 14 22 -6 0 -12 -8 -25 -16 -27 -13 -5 -13
-3 -1 11 17 21 7 22 -24 1 -31 -21 -31 -28 1 -42 14 -7 23 -15 21 -20 -3 -4 8
-8 25 -9 26 -2 28 0 17 13 -7 8 -18 13 -26 10 -8 -3 -12 -2 -8 3 3 5 -1 12 -7
15 -7 3 -2 4 12 3 14 -1 24 3 23 8 -1 6 7 11 17 11 10 0 16 -4 14 -8 -3 -4 0
-8 7 -8 8 0 8 -4 -1 -15 -19 -22 3 -44 25 -25 11 9 15 9 15 1 0 -9 5 -9 21 0
12 6 19 7 15 1 -3 -6 13 -9 43 -8 27 0 47 4 45 8 -2 4 0 9 6 13 5 3 10 0 10
-8 0 -22 117 -20 131 2 9 14 10 14 5 -1 -8 -26 40 -24 84 3 19 12 73 42 120
67 148 78 160 86 160 107 0 17 2 17 10 5 9 -13 14 -8 11 12 0 4 7 6 17 5 10 0
34 9 53 21 30 18 36 28 37 58 2 50 12 57 12 8 l1 -39 18 22 c10 12 21 20 24
17 5 -6 22 46 31 96 3 14 4 2 2 -25 l-3 -51 45 23 c34 17 62 23 113 23 66 0
68 1 72 28 4 26 4 26 6 -4 1 -24 6 -33 24 -37 12 -2 30 -8 39 -12 15 -6 18 2
21 67 l3 73 2 -81 c2 -64 5 -83 18 -88 9 -3 20 -3 25 0 5 3 9 2 8 -3 -3 -20 2
-27 11 -13 8 13 10 12 10 -4 0 -10 15 -39 33 -65 41 -56 64 -113 73 -180 l7
-51 48 0 c41 0 48 3 52 23 l4 22 2 -23 c1 -24 28 -28 43 -7 5 6 8 5 8 -2 0 -9
22 -13 75 -13 53 0 75 4 75 13 0 8 3 8 9 -2 7 -11 11 -4 14 25 l4 39 1 -37 c2
-42 18 -51 25 -15 l4 22 2 -22 c2 -35 39 -31 44 5 l4 27 2 -27 c1 -27 21 -41
21 -15 0 8 3 8 9 -2 7 -11 11 -4 14 25 l4 39 1 -37 c2 -39 17 -51 25 -20 4 16
5 16 6 0 2 -27 39 -23 44 5 l4 22 2 -22 c1 -31 38 -31 44 0 4 21 4 21 6 1 1
-16 8 -21 33 -22 18 0 36 5 40 11 6 9 8 9 8 -1 0 -17 330 -16 330 2 0 7 3 7 8
-1 5 -7 30 -12 64 -12 44 1 58 5 61 18 4 15 5 15 6 -1 1 -15 60 -16 771 -17
l770 -1 0 960 c-1 896 -2 960 -18 960 -16 1 -15 2 1 14 17 13 18 38 16 376 -1
351 -2 361 -19 323 -9 -21 -24 -44 -33 -52 -9 -7 -14 -17 -12 -22 8 -12 -67
20 -87 39 -10 8 -18 22 -18 30 0 9 -6 12 -16 8 -9 -3 -18 -6 -20 -6 -2 0 -4
-6 -4 -14 0 -7 -10 -16 -22 -20 -33 -8 -118 -7 -118 2 0 4 9 34 19 67 25 81
32 125 22 125 -5 0 -14 -15 -20 -32 -12 -36 -50 -90 -51 -72 0 6 -22 10 -55
10 -31 -1 -54 3 -54 9 3 26 -2 45 -11 45 -5 0 -10 -5 -10 -11 0 -25 -49 -52
-100 -54 -14 -1 -34 -5 -44 -10 -18 -8 -19 -5 -14 51 l6 59 -26 -54 c-13 -30
-27 -75 -30 -100 -5 -43 -4 -45 12 -28 10 9 27 17 39 18 46 2 93 -3 110 -13
11 -6 23 -6 30 0 7 5 37 12 67 16 30 4 60 12 66 17 13 11 26 -22 15 -38 -8
-13 -91 -33 -138 -33 -21 0 -45 -5 -53 -11 -11 -7 1 -8 40 -5 30 3 105 8 165
12 61 3 125 8 142 10 30 5 34 2 50 -30 16 -34 16 -39 0 -89 -9 -30 -17 -64
-17 -76 0 -21 1 -21 25 -5 14 9 28 14 31 12 2 -3 -14 -50 -37 -104 -23 -54
-48 -119 -57 -144 -8 -25 -19 -52 -24 -60 -9 -16 -9 -17 -40 -98 -16 -41 -24
-52 -37 -46 -9 3 -30 10 -47 15 -19 6 -31 16 -31 27 -1 17 40 150 57 187 24
49 38 105 29 110 -10 7 -10 8 -68 -165 -24 -69 -44 -126 -45 -127 -3 -3 -120
17 -124 22 -8 7 81 254 93 259 8 3 12 12 9 20 -4 10 4 16 25 21 36 8 55 29 47
52 -5 12 -9 14 -18 5 -7 -7 -20 -12 -30 -12 -11 0 -32 -7 -48 -15 -27 -14 -30
-14 -30 0 0 17 -16 20 -25 5 -6 -9 -58 -5 -76 5 -4 3 -20 -2 -35 -10 -35 -18
-76 -19 -92 -3 -9 9 -16 7 -32 -7 -11 -10 -20 -13 -20 -7 0 11 -18 11 -36 0
-5 -4 -31 -5 -57 -4 -26 2 -47 0 -47 -5 0 -5 -6 -9 -13 -9 -7 0 -22 -7 -33
-16 -18 -14 -16 -15 29 -11 26 3 47 1 47 -4 0 -5 12 -4 26 1 38 15 72 12 92
-8 16 -17 18 -17 32 1 9 10 31 19 51 20 20 1 44 9 53 17 14 11 19 11 25 1 6
-8 23 -10 58 -5 29 3 53 2 56 -3 6 -10 0 -35 -48 -200 l-27 -92 -38 1 c-20 0
-51 -3 -68 -7 -18 -3 -32 -4 -32 -1 0 10 47 168 64 215 9 24 14 46 12 49 -12
11 -36 -10 -36 -31 0 -13 -4 -37 -9 -53 -5 -16 -19 -62 -32 -102 -20 -66 -24
-73 -43 -67 -12 3 -40 9 -64 12 -33 4 -41 9 -38 22 15 46 56 192 56 196 0 3
-7 5 -15 5 -10 0 -15 -10 -15 -27 0 -33 -38 -174 -51 -187 -10 -11 -253 -11
-270 -1 -6 4 -9 16 -6 26 3 11 1 19 -4 19 -5 0 -9 -10 -9 -21 0 -21 -3 -21
-67 -14 -140 17 -231 11 -333 -23 -52 -18 -104 -32 -115 -32 -11 0 -71 25
-133 55 -99 48 -112 58 -112 80 0 14 -4 25 -10 25 -5 0 -10 -9 -10 -19 0 -18
-7 -16 -67 17 -114 60 -158 81 -169 82 -6 0 -19 9 -29 20 -10 11 -24 20 -32
20 -8 0 -13 12 -14 33 0 17 -3 25 -6 17 -4 -8 -14 -21 -25 -28 -10 -7 -18 -21
-18 -30 0 -13 -2 -14 -9 -4 -6 10 -15 9 -44 -8 -21 -12 -37 -17 -37 -11 0 6 5
11 10 11 6 0 10 13 10 29 0 17 6 31 16 35 8 3 13 10 10 15 -3 5 5 24 17 43 13
18 22 39 19 46 -2 7 3 12 12 12 9 0 16 6 16 14 0 8 10 34 21 58 30 59 37 78
44 115 3 17 13 37 21 44 8 6 14 17 14 24 0 8 11 27 25 43 13 16 22 32 18 36
-3 3 3 14 14 23 10 10 22 26 26 36 3 9 11 17 16 17 5 0 13 9 16 20 4 11 20 27
36 35 16 9 29 20 29 26 0 6 -7 3 -16 -5 -20 -21 -23 -20 -21 4 1 11 7 20 14
20 17 0 53 32 47 42 -3 4 1 5 9 3 17 -7 41 62 23 69 -7 3 -7 5 2 5 14 1 17 31
2 31 -5 0 -6 7 -3 17 5 12 3 14 -7 8 -13 -8 -13 -1 2 66 4 17 30 39 40 33 15
-10 8 14 -13 40 -15 19 -17 26 -7 26 8 0 19 -5 26 -12 9 -9 12 -9 12 0 0 7 -4
12 -10 12 -5 0 -10 5 -10 11 0 5 5 7 10 4 6 -3 10 -1 10 4 0 6 -7 11 -16 11
-8 0 -12 5 -9 10 10 17 45 11 45 -7 0 -14 2 -15 13 -4 10 10 7 16 -12 32 -21
17 -22 22 -10 30 12 7 11 9 -3 9 -9 0 -18 -3 -21 -7 -2 -5 -2 -1 1 7 4 14 5
183 1 240 -1 14 -1 36 -1 50 5 122 2 203 -7 190 -6 -8 -11 -38 -11 -66 0 -38
-5 -55 -20 -69 -11 -10 -20 -28 -20 -41 0 -13 -5 -26 -12 -30 -8 -5 -9 0 -6
14 4 12 2 22 -3 22 -5 0 -9 -9 -9 -20 0 -11 -7 -20 -15 -20 -13 0 -14 -4 -4
-21 10 -20 9 -21 -10 -16 -17 4 -24 0 -30 -16 -7 -17 -9 -14 -15 21 -4 28 -11
42 -21 42 -17 0 -20 -16 -5 -25 6 -3 10 -10 10 -16 0 -5 -4 -9 -10 -9 -5 0
-10 7 -10 15 0 14 -31 21 -42 9 -8 -7 14 -74 24 -74 5 0 8 -8 6 -17 -2 -10 3
-17 10 -16 6 2 12 -2 12 -7 0 -6 -4 -10 -10 -10 -5 0 -9 -10 -8 -22 0 -13 -2
-36 -6 -53 -6 -24 -5 -27 4 -15 10 13 11 12 5 -5 -22 -64 -28 -74 -36 -69 -5
3 -6 -1 -3 -9 3 -8 0 -18 -6 -22 -9 -6 -9 -9 0 -15 18 -11 3 -29 -33 -38 -18
-5 -33 -16 -35 -25 -4 -19 20 -14 50 12 25 21 50 23 46 3 -2 -9 -7 -16 -11
-14 -4 1 -24 -5 -44 -13 -35 -15 -39 -15 -50 1 -12 16 -13 16 -13 -4 0 -13 -6
-22 -15 -22 -8 0 -15 9 -15 19 0 11 -6 21 -12 24 -7 2 -10 8 -6 12 4 4 14 3
22 -4 11 -9 15 -8 20 5 9 22 9 22 -24 20 -36 -3 -44 16 -35 77 4 31 3 38 -4
27 -9 -12 -11 -9 -12 15 -1 20 -3 23 -6 10 -10 -45 -16 -50 -23 -20 -6 25 -8
26 -9 7 0 -13 -5 -20 -11 -17 -6 4 -8 11 -5 16 4 5 -2 6 -12 2 -17 -6 -17 -5
1 15 19 22 19 22 -7 22 -14 0 -31 2 -39 3 -7 2 -10 2 -5 0 4 -3 7 -11 7 -19 0
-12 -4 -12 -20 -4 -11 6 -18 16 -14 21 3 6 -2 19 -12 29 -11 9 -28 28 -39 41
l-19 24 -11 -38 c-6 -21 -14 -35 -18 -31 -14 14 -7 114 10 154 19 43 29 50 36
23 2 -10 4 0 4 22 1 36 -35 130 -37 95 0 -13 -1 -13 -10 0 -5 8 -10 11 -10 5
0 -5 -9 5 -21 24 -11 18 -18 36 -15 39 3 2 8 -3 12 -12 3 -9 10 -13 15 -10 5
3 6 -3 2 -13 -3 -10 -3 -15 1 -11 12 10 14 57 3 55 -6 -1 -12 5 -13 13 -3 32
-17 60 -30 60 -7 0 -18 9 -24 20 -6 11 -21 20 -33 20 -18 0 -19 -2 -7 -11 12
-8 12 -10 1 -7 -8 2 -15 12 -17 22 -4 26 -14 33 -24 16 -7 -10 -10 -11 -10 -2
0 6 -9 12 -19 12 -11 0 -23 5 -27 12 -5 8 -2 9 9 5 10 -3 17 -2 17 4 0 5 -12
8 -27 7 -20 -2 -27 1 -25 11 3 12 0 12 -12 1 -18 -14 -21 -55 -6 -65 12 -7 13
-45 2 -45 -5 0 -43 34 -84 75 -72 72 -108 92 -108 60 0 -18 -58 -15 -105 4
-16 7 -39 14 -51 15 -11 2 -26 6 -32 10 -6 3 -17 0 -24 -7z m-528 -118 c0 -16
-4 -28 -9 -25 -8 5 -3 56 5 56 2 0 4 -14 4 -31z m-23 -1 c-2 -7 0 -23 4 -35 5
-13 5 -23 0 -23 -13 0 -22 30 -16 51 4 11 9 19 12 19 2 0 3 -6 0 -12z m-4 -79
c5 -4 6 -12 3 -18 -13 -20 -22 -12 -23 22 -1 17 1 25 4 17 3 -8 10 -18 16 -21z
m1237 -191 c0 -5 -4 -8 -10 -8 -5 0 -10 10 -10 23 0 18 2 19 10 7 5 -8 10 -18
10 -22z m-57 -49 c4 -16 3 -18 -9 -8 -7 6 -11 15 -8 20 8 13 11 11 17 -12z
m657 -5 c0 -8 -5 -12 -11 -8 -8 4 -9 -1 -5 -17 7 -24 7 -24 -8 1 -9 14 -15 19
-16 13 0 -7 -4 -13 -10 -13 -5 0 -7 7 -3 16 3 8 12 13 19 10 8 -3 14 -1 14 4
0 6 5 10 10 10 6 0 10 -7 10 -16z m-159 -14 c10 -6 19 -18 19 -26 0 -14 -2
-14 -16 0 -8 9 -20 16 -25 16 -5 0 -9 5 -9 10 0 13 6 13 31 0z m195 -68 c-12
-11 -18 7 -10 30 l8 23 4 -23 c2 -13 1 -26 -2 -30z m-679 1 c-3 -10 -5 -4 -5
12 0 17 2 24 5 18 2 -7 2 -21 0 -30z m75 -125 c-6 -6 -7 0 -4 19 5 21 7 23 10
9 2 -10 0 -22 -6 -28z m-1987 12 c3 -5 1 -10 -4 -10 -6 0 -11 5 -11 10 0 6 2
10 4 10 3 0 8 -4 11 -10z m627 -32 c-7 -7 -12 -8 -12 -2 0 14 12 26 19 19 2
-3 -1 -11 -7 -17z m39 -35 c10 -11 10 -14 2 -9 -7 4 -13 2 -13 -3 0 -6 -8 -11
-17 -11 -15 0 -16 2 -3 10 8 5 11 10 7 10 -5 0 -5 5 -2 10 8 13 10 13 26 -7z
m1476 -25 c-3 -8 -6 -5 -6 6 -1 11 2 17 5 13 3 -3 4 -12 1 -19z m243 -7 c0
-22 -16 -36 -24 -22 -8 12 3 41 15 41 5 0 9 -9 9 -19z m-229 -14 c-10 -9 -11
-8 -5 6 3 10 9 15 12 12 3 -3 0 -11 -7 -18z m-49 -19 c-8 -8 -9 -4 -5 13 4 13
8 18 11 10 2 -7 -1 -18 -6 -23z m-1602 15 c0 -5 -4 -14 -9 -22 -9 -14 -31 -7
-31 10 0 6 5 7 10 4 6 -3 10 -1 10 4 0 6 5 11 10 11 6 0 10 -3 10 -7z m-47
-59 c-6 -15 -7 -15 -15 5 -10 28 1 51 13 28 5 -8 6 -23 2 -33z m1695 32 c-7
-8 -15 -12 -17 -11 -5 6 10 25 20 25 5 0 4 -6 -3 -14z m417 -55 c-9 -16 -25
-3 -18 15 4 10 9 12 15 6 6 -6 7 -15 3 -21z m-1075 -1 c-20 -13 -33 -13 -25 0
3 6 14 10 23 10 15 0 15 -2 2 -10z m870 -10 c0 -5 -5 -10 -11 -10 -5 0 -7 5
-4 10 3 6 8 10 11 10 2 0 4 -4 4 -10z m-2240 -42 c0 -9 -4 -20 -10 -23 -6 -4
-10 9 -10 32 0 28 3 34 10 23 5 -8 10 -23 10 -32z m670 38 c0 -3 -4 -8 -10
-11 -5 -3 -10 -1 -10 4 0 6 5 11 10 11 6 0 10 -2 10 -4z m854 -17 c-6 -11 -24
-2 -24 11 0 5 7 7 15 4 8 -4 12 -10 9 -15z m526 11 c0 -5 -2 -10 -4 -10 -3 0
-8 5 -11 10 -3 6 -1 10 4 10 6 0 11 -4 11 -10z m-1363 -22 c-3 -8 -6 -5 -6 6
-1 11 2 17 5 13 3 -3 4 -12 1 -19z m763 12 c0 -5 -2 -10 -4 -10 -3 0 -8 5 -11
10 -3 6 -1 10 4 10 6 0 11 -4 11 -10z m755 0 c4 -6 -6 -10 -22 -11 l-28 -1 25
-8 25 -8 -27 -1 c-33 -1 -45 14 -21 28 23 13 40 14 48 1z m-2263 -19 c9 -11
14 -22 11 -25 -4 -3 -1 -6 6 -6 7 0 10 -4 6 -10 -9 -14 -34 0 -28 16 4 10 0
12 -11 8 -9 -3 -16 -13 -16 -22 0 -8 -2 -13 -5 -10 -7 7 6 68 14 68 4 0 14 -9
23 -19z m2472 -155 c-7 -17 -34 -22 -34 -6 0 6 7 10 15 10 8 0 15 5 15 12 0 6
2 9 5 6 3 -3 3 -13 -1 -22z m-2153 -326 c11 0 17 -5 14 -10 -4 -6 -11 -8 -16
-5 -5 4 -9 0 -9 -8 0 -8 10 -13 23 -13 13 1 21 -4 19 -13 -1 -7 3 -19 9 -27 8
-10 8 -14 0 -14 -6 0 -11 5 -11 11 0 6 -7 9 -15 5 -20 -7 -19 4 3 21 15 12 14
13 -13 11 -23 -2 -29 1 -27 14 1 9 -2 19 -8 23 -5 3 -10 14 -10 23 1 16 1 16
11 0 5 -10 19 -18 30 -18z m59 -140 c0 -5 -5 -10 -11 -10 -5 0 -7 5 -4 10 3 6
8 10 11 10 2 0 4 -4 4 -10z m4030 -130 c0 -5 -4 -10 -10 -10 -5 0 -10 5 -10
10 0 6 5 10 10 10 6 0 10 -4 10 -10z m-63 -123 c-73 -155 -87 -188 -102 -242
-4 -16 -12 -35 -16 -41 -11 -14 26 -49 41 -39 12 8 30 -11 30 -31 0 -8 -13 -9
-41 -4 -22 4 -49 5 -60 3 -25 -7 -24 -1 11 90 16 42 41 110 54 149 26 76 70
173 90 197 23 29 18 -29 -7 -82z m-3843 45 c3 -5 -9 -9 -27 -9 -26 -1 -28 1
-12 7 27 11 33 12 39 2z m3864 -73 c-18 -12 -23 8 -6 28 12 15 13 15 16 -2 2
-10 -2 -21 -10 -26z m-2268 -44 c-7 -9 -15 -13 -18 -10 -3 2 1 11 8 20 7 9 15
13 18 10 3 -2 -1 -11 -8 -20z m-55 -35 c-10 -11 -24 -20 -32 -20 -7 0 -12 -5
-10 -11 1 -6 -4 -14 -10 -16 -28 -10 -11 25 24 50 41 29 56 28 28 -3z m-83
-58 c-7 -2 -12 -10 -12 -18 0 -9 -12 -14 -36 -14 -21 0 -33 4 -29 10 3 6 14
10 24 10 10 0 26 9 37 21 13 14 20 17 23 8 2 -7 -1 -15 -7 -17z m2418 -193 c0
-5 -11 -9 -25 -9 -28 0 -34 16 -7 23 20 4 32 -1 32 -14z m-2635 -79 c-10 -11
-21 -17 -24 -14 -3 3 3 12 13 20 28 20 32 17 11 -6z m-602 -17 c-7 -2 -19 -2
-25 0 -7 3 -2 5 12 5 14 0 19 -2 13 -5z m-1843 -63 c-8 -5 -19 -10 -25 -10 -5
0 -3 5 5 10 8 5 20 10 25 10 6 0 3 -5 -5 -10z m37 -16 c-3 -3 -12 -4 -19 -1
-8 3 -5 6 6 6 11 1 17 -2 13 -5z m-217 -54 c-8 -5 -19 -10 -25 -10 -5 0 -3 5
5 10 8 5 20 10 25 10 6 0 3 -5 -5 -10z m695 -70 c3 -5 1 -10 -4 -10 -6 0 -11
5 -11 10 0 6 2 10 4 10 3 0 8 -4 11 -10z m-570 -32 c-9 -5 -21 -7 -28 -4 -7 2
-5 5 5 5 12 1 15 6 11 19 -6 15 -5 15 11 3 16 -13 16 -15 1 -23z m-245 -8 c0
-5 -2 -10 -4 -10 -3 0 -8 5 -11 10 -3 6 -1 10 4 10 6 0 11 -4 11 -10z m5184
-8 c3 -5 -1 -9 -9 -9 -8 0 -12 4 -9 9 3 4 7 8 9 8 2 0 6 -4 9 -8z m-4989 -32
c-3 -5 -11 -10 -16 -10 -6 0 -7 5 -4 10 3 6 11 10 16 10 6 0 7 -4 4 -10z m765
0 c0 -5 -4 -10 -10 -10 -5 0 -10 5 -10 10 0 6 5 10 10 10 6 0 10 -4 10 -10z
m-970 -10 c0 -5 -5 -10 -11 -10 -5 0 -7 5 -4 10 3 6 8 10 11 10 2 0 4 -4 4
-10z m211 -37 c12 -16 12 -17 -2 -6 -9 7 -19 10 -22 6 -4 -3 -7 -1 -7 5 0 17
16 15 31 -5z m-371 -17 c0 -2 -8 -10 -17 -17 -16 -13 -17 -12 -4 4 13 16 21
21 21 13z m5296 -15 c1 -6 0 -7 -3 -1 -2 5 -9 8 -13 5 -5 -3 -11 -1 -14 4 -4
5 2 8 11 7 9 -2 18 -8 19 -15z m-4916 -7 c0 -8 -19 -13 -24 -6 -3 5 1 9 9 9 8
0 15 -2 15 -3z m-456 -32 c3 -5 -1 -9 -9 -9 -8 0 -12 4 -9 9 3 4 7 8 9 8 2 0
6 -4 9 -8z m389 -18 c-4 -11 -8 -12 -13 -4 -5 8 -9 7 -14 -5 -3 -9 -4 -20 -1
-24 2 -4 -2 -8 -10 -8 -17 0 -20 13 -5 22 5 3 6 13 3 22 -4 10 -2 14 5 9 6 -3
13 -2 17 4 10 15 25 2 18 -16z m-423 -8 c0 -2 -7 -7 -16 -10 -8 -3 -12 -2 -9
4 6 10 25 14 25 6z m5040 -57 c0 -6 -4 -7 -10 -4 -5 3 -10 11 -10 16 0 6 5 7
10 4 6 -3 10 -11 10 -16z m-5146 -23 c-3 -9 -10 -14 -14 -11 -5 3 -11 1 -15
-5 -4 -6 -11 -7 -17 -4 -5 3 3 14 19 24 32 20 36 19 27 -4z m5120 -32 c3 -8 2
-12 -4 -9 -6 3 -10 10 -10 16 0 14 7 11 14 -7z m-4694 -4 c0 -5 -4 -10 -10
-10 -5 0 -10 -7 -10 -15 0 -8 -10 -23 -22 -35 -18 -17 -19 -20 -5 -20 9 0 17
-4 17 -10 0 -5 -6 -7 -13 -4 -10 4 -13 -5 -12 -33 1 -21 -2 -40 -5 -43 -4 -3
-15 -18 -24 -35 -10 -16 -15 -22 -12 -12 4 12 2 17 -6 14 -7 -2 -12 -12 -12
-21 1 -9 -3 -16 -8 -16 -6 0 -5 -6 2 -15 17 -20 6 -19 -15 1 -9 9 -23 13 -33
9 -9 -3 -19 -6 -22 -6 -3 -1 -10 -5 -17 -10 -7 -7 -13 -6 -18 0 -3 6 5 13 18
17 16 3 24 12 22 22 -1 9 0 11 2 5 6 -17 15 -16 39 3 18 15 18 15 -3 9 -14 -4
-23 -2 -23 4 0 6 5 11 10 11 6 0 8 11 4 25 -4 15 -2 25 5 25 6 0 11 -9 11 -20
0 -28 26 -36 46 -15 12 12 14 19 5 28 -8 8 -11 7 -11 -5 0 -9 -5 -20 -12 -24
-8 -5 -9 3 -5 29 3 23 1 37 -6 40 -15 5 49 67 69 67 8 0 20 11 26 25 11 25 28
34 28 15z m-50 -15 c-7 -8 -19 -15 -27 -15 -13 0 -13 3 -3 15 7 8 19 15 27 15
13 0 13 -3 3 -15z m4988 -10 c-3 -3 -9 2 -12 12 -6 14 -5 15 5 6 7 -7 10 -15
7 -18z m-5477 -8 c-10 -9 -11 -8 -5 6 3 10 9 15 12 12 3 -3 0 -11 -7 -18z
m1346 -9 c-3 -7 -5 -2 -5 12 0 14 2 19 5 13 2 -7 2 -19 0 -25z m2630 -5 c-3
-10 -5 -4 -5 12 0 17 2 24 5 18 2 -7 2 -21 0 -30z m1232 -3 c11 -24 11 -24 -3
-6 -9 11 -16 24 -16 30 0 12 5 7 19 -24z m-3882 -2 c-3 -8 -6 -5 -6 6 -1 11 2
17 5 13 3 -3 4 -12 1 -19z m150 -30 c-2 -13 -4 -5 -4 17 -1 22 1 32 4 23 2
-10 2 -28 0 -40z m3956 37 c-3 -9 -8 -14 -10 -11 -3 3 -2 9 2 15 9 16 15 13 8
-4z m90 -6 c-8 -8 -13 -7 -18 2 -5 8 -4 10 3 5 7 -4 12 -2 12 5 0 7 3 9 7 6 4
-4 2 -12 -4 -18z m-239 -5 c3 -8 2 -12 -4 -9 -6 3 -10 10 -10 16 0 14 7 11 14
-7z m-4057 -26 c-3 -7 -5 -2 -5 12 0 14 2 19 5 13 2 -7 2 -19 0 -25z m4247 24
c3 -5 -1 -9 -9 -9 -8 0 -12 4 -9 9 3 4 7 8 9 8 2 0 6 -4 9 -8z m-5527 -19 c0
-9 -4 -10 -14 -2 -7 6 -13 12 -13 14 0 1 6 2 13 2 8 0 14 -6 14 -14z m4480
-15 c-3 -8 -6 -5 -6 6 -1 11 2 17 5 13 3 -3 4 -12 1 -19z m50 -20 c-3 -7 -5
-2 -5 12 0 14 2 19 5 13 2 -7 2 -19 0 -25z m450 10 c-3 -8 -6 -5 -6 6 -1 11 2
17 5 13 3 -3 4 -12 1 -19z m351 -3 c-3 -3 -9 2 -12 12 -6 14 -5 15 5 6 7 -7
10 -15 7 -18z m223 10 c5 4 6 -2 2 -11 -5 -13 -8 -14 -11 -5 -3 10 -6 10 -12
1 -5 -8 -9 -7 -13 5 -4 9 -3 13 3 10 6 -3 10 0 11 7 0 10 2 10 6 0 2 -6 9 -10
14 -7z m89 -30 c0 -5 -5 -3 -10 5 -5 8 -10 20 -10 25 0 6 5 3 10 -5 5 -8 10
-19 10 -25z m-5710 11 c0 -2 -7 -7 -16 -10 -8 -3 -12 -2 -9 4 6 10 25 14 25 6z
m1397 -28 c-3 -8 -6 -5 -6 6 -1 11 2 17 5 13 3 -3 4 -12 1 -19z m100 -25 c-3
-10 -5 -2 -5 17 0 19 2 27 5 18 2 -10 2 -26 0 -35z m2800 15 c-3 -8 -6 -5 -6
6 -1 11 2 17 5 13 3 -3 4 -12 1 -19z m-2820 -10 c-3 -8 -6 -5 -6 6 -1 11 2 17
5 13 3 -3 4 -12 1 -19z m3020 -10 c-3 -7 -5 -2 -5 12 0 14 2 19 5 13 2 -7 2
-19 0 -25z m-3862 12 c3 -5 1 -10 -4 -10 -6 0 -11 5 -11 10 0 6 2 10 4 10 3 0
8 -4 11 -10z m4074 -30 c0 -10 -3 -8 -9 5 -12 27 -12 43 0 25 5 -8 9 -22 9
-30z m-2412 -2 c-3 -7 -5 -2 -5 12 0 14 2 19 5 13 2 -7 2 -19 0 -25z m3071 1
c-3 -8 -7 -3 -11 10 -4 17 -3 21 5 13 5 -5 8 -16 6 -23z m-3721 -16 c-3 -10
-5 -4 -5 12 0 17 2 24 5 18 2 -7 2 -21 0 -30z m2900 15 c-3 -8 -6 -5 -6 6 -1
11 2 17 5 13 3 -3 4 -12 1 -19z m1230 0 c-3 -8 -6 -5 -6 6 -1 11 2 17 5 13 3
-3 4 -12 1 -19z m31 -13 c-3 -3 -9 2 -12 12 -6 14 -5 15 5 6 7 -7 10 -15 7
-18z m-2908 -8 c0 -2 -8 -3 -18 -3 -10 0 -19 6 -19 13 0 8 6 9 19 2 10 -5 18
-11 18 -12z m2954 7 c3 -8 2 -12 -4 -9 -6 3 -10 10 -10 16 0 14 7 11 14 -7z
m24 -9 c-3 -3 -9 2 -12 12 -6 14 -5 15 5 6 7 -7 10 -15 7 -18z m-4251 -17 c-3
-7 -5 -2 -5 12 0 14 2 19 5 13 2 -7 2 -19 0 -25z m2570 10 c-3 -8 -6 -5 -6 6
-1 11 2 17 5 13 3 -3 4 -12 1 -19z m1231 -3 c-3 -3 -9 2 -12 12 -6 14 -5 15 5
6 7 -7 10 -15 7 -18z m-5573 5 c-3 -5 -12 -10 -19 -10 -7 0 -23 -9 -36 -20
-13 -11 -30 -20 -39 -20 -19 0 13 24 61 45 40 17 41 17 33 5z m1415 -6 c0 -8
-4 -13 -9 -10 -5 4 -11 0 -14 -6 -2 -7 -8 -10 -12 -5 -5 4 0 14 11 22 24 18
24 18 24 -1z m1280 -4 c6 -11 8 -20 6 -20 -3 0 -10 9 -16 20 -6 11 -8 20 -6
20 3 0 10 -9 16 -20z m-943 -12 c-3 -8 -6 -5 -6 6 -1 11 2 17 5 13 3 -3 4 -12
1 -19z m2440 -20 c-3 -7 -5 -2 -5 12 0 14 2 19 5 13 2 -7 2 -19 0 -25z m950
10 c-3 -8 -6 -5 -6 6 -1 11 2 17 5 13 3 -3 4 -12 1 -19z m-3792 2 c3 -5 1 -10
-4 -10 -6 0 -11 5 -11 10 0 6 2 10 4 10 3 0 8 -4 11 -10z m212 -12 c-3 -8 -6
-5 -6 6 -1 11 2 17 5 13 3 -3 4 -12 1 -19z m1183 16 c0 -8 -19 -13 -24 -6 -3
5 1 9 9 9 8 0 15 -2 15 -3z m2824 -10 c3 -8 2 -13 -3 -9 -5 3 -11 0 -13 -7 -3
-7 -7 -5 -11 6 -4 10 -3 15 3 11 6 -3 10 -1 10 4 0 16 7 13 14 -5z m-5074 0
c0 -8 -19 -13 -24 -6 -3 5 1 9 9 9 8 0 15 -2 15 -3z m4307 -16 c-3 -8 -6 -5
-6 6 -1 11 2 17 5 13 3 -3 4 -12 1 -19z m390 0 c-3 -8 -6 -5 -6 6 -1 11 2 17
5 13 3 -3 4 -12 1 -19z m-4527 -9 c0 -6 -6 -9 -12 -6 -7 2 -28 -4 -45 -14 -18
-10 -33 -14 -33 -9 0 12 41 40 51 34 4 -2 10 0 14 6 7 12 25 4 25 -11z m666 9
c4 -7 3 -8 -4 -4 -7 4 -12 2 -12 -5 0 -7 -3 -10 -6 -6 -6 5 3 27 11 27 2 0 7
-5 11 -12z m1725 -5 c13 -16 12 -17 -3 -4 -10 7 -18 15 -18 17 0 8 8 3 21 -13z
m-1414 -15 c-3 -8 -6 -5 -6 6 -1 11 2 17 5 13 3 -3 4 -12 1 -19z m949 10 c3
-4 -1 -5 -10 -4 -8 1 -18 5 -22 8 -3 4 1 5 10 4 8 -1 18 -5 22 -8z m1651 -25
c-3 -10 -5 -4 -5 12 0 17 2 24 5 18 2 -7 2 -21 0 -30z m450 15 c-3 -8 -6 -5
-6 6 -1 11 2 17 5 13 3 -3 4 -12 1 -19z m1200 0 c-3 -8 -6 -5 -6 6 -1 11 2 17
5 13 3 -3 4 -12 1 -19z m-6032 2 c-3 -5 -11 -10 -16 -10 -6 0 -7 5 -4 10 3 6
11 10 16 10 6 0 7 -4 4 -10z m858 -15 c-3 -9 -8 -14 -10 -11 -3 3 -2 9 2 15 9
16 15 13 8 -4z m904 -17 c-3 -7 -5 -2 -5 12 0 14 2 19 5 13 2 -7 2 -19 0 -25z
m1101 10 c-9 -13 -19 -22 -24 -20 -13 3 -11 27 3 27 6 0 15 3 19 8 15 15 16 6
2 -15z m-2073 2 c3 -5 1 -10 -4 -10 -6 0 -11 5 -11 10 0 6 2 10 4 10 3 0 8 -4
11 -10z m1948 -23 c-3 -5 -10 -4 -16 2 -7 7 -15 7 -26 -2 -14 -11 -14 -10 -2
5 7 10 17 15 22 12 5 -3 9 1 9 8 0 10 3 9 9 -2 6 -8 7 -18 4 -23z m2244 1 c-3
-8 -6 -5 -6 6 -1 11 2 17 5 13 3 -3 4 -12 1 -19z m-4221 -23 c-18 -18 -21 -30
-6 -20 6 3 10 2 10 -4 0 -6 -9 -15 -19 -21 -11 -5 -22 -23 -26 -40 -4 -17 -11
-28 -16 -24 -5 3 -9 -2 -9 -10 0 -8 -9 -18 -21 -21 -16 -6 -19 -12 -15 -33 5
-20 4 -23 -4 -12 -9 13 -10 13 -11 0 0 -12 -2 -12 -6 -1 -5 11 -7 11 -14 0 -6
-11 -9 -10 -15 4 -7 18 23 50 38 41 4 -2 9 0 13 6 3 5 0 10 -8 10 -12 0 -12 5
1 34 10 23 20 33 31 29 12 -3 12 -2 -1 7 -18 11 -26 36 -9 25 6 -3 15 4 21 15
6 11 19 20 29 20 11 0 22 8 25 17 5 12 10 13 18 5 8 -8 6 -15 -6 -27z m3271 3
c-3 -7 -5 -2 -5 12 0 14 2 19 5 13 2 -7 2 -19 0 -25z m-150 -40 c-2 -13 -4 -3
-4 22 0 25 2 35 4 23 2 -13 2 -33 0 -45z m350 15 c-3 -10 -5 -2 -5 17 0 19 2
27 5 18 2 -10 2 -26 0 -35z m-3433 21 c3 -8 2 -12 -4 -9 -6 3 -10 10 -10 16 0
14 7 11 14 -7z m2007 -7 c-10 -9 -11 -8 -5 6 3 10 9 15 12 12 3 -3 0 -11 -7
-18z m1186 -14 c-3 -10 -5 -4 -5 12 0 17 2 24 5 18 2 -7 2 -21 0 -30z m1370
15 c-3 -8 -6 -5 -6 6 -1 11 2 17 5 13 3 -3 4 -12 1 -19z m-880 -20 c-3 -7 -5
-2 -5 12 0 14 2 19 5 13 2 -7 2 -19 0 -25z m-2770 0 c-3 -8 -6 -5 -6 6 -1 11
2 17 5 13 3 -3 4 -12 1 -19z m-130 -10 c-3 -8 -6 -5 -6 6 -1 11 2 17 5 13 3
-3 4 -12 1 -19z m1133 7 c0 5 5 4 12 -3 9 -9 9 -15 -1 -24 -10 -11 -11 -9 -5
5 4 12 2 17 -6 15 -7 -2 -15 4 -17 12 -4 13 -3 13 6 0 6 -8 11 -11 11 -5z
m1817 -17 c-3 -7 -5 -2 -5 12 0 14 2 19 5 13 2 -7 2 -19 0 -25z m20 10 c-3 -8
-6 -5 -6 6 -1 11 2 17 5 13 3 -3 4 -12 1 -19z m-690 -10 c-3 -8 -6 -5 -6 6 -1
11 2 17 5 13 3 -3 4 -12 1 -19z m1070 -10 c-3 -7 -5 -2 -5 12 0 14 2 19 5 13
2 -7 2 -19 0 -25z m-2177 2 c-6 -11 -13 -20 -16 -20 -2 0 0 9 6 20 6 11 13 20
16 20 2 0 0 -9 -6 -20z m151 7 c-6 -8 -8 -17 -4 -21 4 -4 0 -4 -10 0 -9 3 -17
10 -17 16 0 5 4 7 9 3 5 -3 12 -1 16 5 3 5 9 10 12 10 3 0 0 -6 -6 -13z m56
-18 c2 -18 1 -20 -6 -9 -5 8 -8 17 -5 21 2 4 -1 10 -6 12 -6 3 -5 4 1 3 7 -1
14 -13 16 -27z m1300 -1 c-3 -7 -5 -2 -5 12 0 14 2 19 5 13 2 -7 2 -19 0 -25z
m600 10 c-3 -8 -6 -5 -6 6 -1 11 2 17 5 13 3 -3 4 -12 1 -19z m300 0 c-3 -8
-6 -5 -6 6 -1 11 2 17 5 13 3 -3 4 -12 1 -19z m-3518 -10 c-5 -10 -11 -18 -12
-18 -2 0 -3 8 -3 18 0 10 6 19 13 19 8 0 9 -6 2 -19z m2458 0 c-3 -8 -6 -5 -6
6 -1 11 2 17 5 13 3 -3 4 -12 1 -19z m1207 6 c3 -8 2 -12 -4 -9 -6 3 -10 10
-10 16 0 14 7 11 14 -7z m-4771 -9 c-3 -9 -8 -14 -10 -11 -3 3 -2 9 2 15 9 16
15 13 8 -4z m2312 5 c3 -6 -1 -7 -9 -4 -18 7 -21 14 -7 14 6 0 13 -4 16 -10z
m330 -1 c11 -16 1 -19 -13 -3 -7 8 -8 14 -3 14 5 0 13 -5 16 -11z m882 -11
c-3 -8 -6 -5 -6 6 -1 11 2 17 5 13 3 -3 4 -12 1 -19z m20 -15 c-3 -10 -5 -4
-5 12 0 17 2 24 5 18 2 -7 2 -21 0 -30z m160 15 c-3 -8 -6 -5 -6 6 -1 11 2 17
5 13 3 -3 4 -12 1 -19z m-2624 -7 c3 -14 -2 -20 -19 -24 -13 -2 -22 -1 -20 2
1 3 6 14 9 24 8 23 23 22 30 -2z m1170 4 c-3 -9 -8 -14 -10 -11 -3 3 -2 9 2
15 9 16 15 13 8 -4z m1544 -7 c-3 -8 -6 -5 -6 6 -1 11 2 17 5 13 3 -3 4 -12 1
-19z m300 0 c-3 -8 -6 -5 -6 6 -1 11 2 17 5 13 3 -3 4 -12 1 -19z m400 0 c-3
-8 -6 -5 -6 6 -1 11 2 17 5 13 3 -3 4 -12 1 -19z m1000 0 c-3 -8 -6 -5 -6 6
-1 11 2 17 5 13 3 -3 4 -12 1 -19z m-5642 2 c3 -5 1 -10 -4 -10 -6 0 -11 5
-11 10 0 6 2 10 4 10 3 0 8 -4 11 -10z m1118 -10 c-3 -12 -8 -19 -11 -16 -5 6
5 36 12 36 2 0 2 -9 -1 -20z m1191 -5 c-9 -14 -18 -25 -21 -25 -5 0 5 18 20
38 17 22 18 13 1 -13z m136 0 c0 -8 10 -19 22 -26 18 -10 20 -9 15 5 -4 10 -3
15 3 11 6 -3 10 -11 10 -17 0 -6 7 -16 15 -22 12 -9 9 -11 -16 -12 -17 -1 -25
2 -19 6 8 5 -2 16 -29 32 -30 18 -38 27 -29 36 13 13 28 7 28 -13z m70 3 c0
-5 -8 -4 -19 1 -10 6 -22 7 -26 3 -5 -4 -5 -2 -2 5 8 13 47 6 47 -9z m1707 0
c-3 -8 -6 -5 -6 6 -1 11 2 17 5 13 3 -3 4 -12 1 -19z m70 0 c-3 -8 -6 -5 -6 6
-1 11 2 17 5 13 3 -3 4 -12 1 -19z m-1712 -16 c-3 -3 -11 0 -18 7 -9 10 -8 11
6 5 10 -3 15 -9 12 -12z m-35 -2 c0 -5 -2 -10 -4 -10 -3 0 -8 5 -11 10 -3 6
-1 10 4 10 6 0 11 -4 11 -10z m207 3 c-4 -3 1 -12 11 -20 15 -13 15 -13 -6 -3
-19 9 -23 30 -5 30 4 0 3 -3 0 -7z m370 -15 c-3 -8 -6 -5 -6 6 -1 11 2 17 5
13 3 -3 4 -12 1 -19z m870 -10 c-3 -7 -5 -2 -5 12 0 14 2 19 5 13 2 -7 2 -19
0 -25z m-20 -10 c-3 -7 -5 -2 -5 12 0 14 2 19 5 13 2 -7 2 -19 0 -25z m-3747
12 c-20 -13 -33 -13 -25 0 3 6 14 10 23 10 15 0 15 -2 2 -10z m1974 -15 c-9
-14 -18 -25 -21 -25 -5 0 5 18 20 38 17 22 18 13 1 -13z m151 15 c-3 -5 -12
-10 -18 -10 -7 0 -6 4 3 10 19 12 23 12 15 0z m335 -36 c0 -7 -58 25 -65 36
-3 5 10 1 29 -11 20 -12 36 -23 36 -25z m1357 24 c-3 -8 -6 -5 -6 6 -1 11 2
17 5 13 3 -3 4 -12 1 -19z m20 0 c-3 -8 -6 -5 -6 6 -1 11 2 17 5 13 3 -3 4
-12 1 -19z m-4112 2 c3 -5 1 -10 -4 -10 -6 0 -11 5 -11 10 0 6 2 10 4 10 3 0
8 -4 11 -10z m1195 -6 c0 -2 -7 -4 -15 -4 -8 0 -15 4 -15 10 0 5 7 7 15 4 8
-4 15 -8 15 -10z m1148 -9 c-3 -3 -9 2 -12 12 -6 14 -5 15 5 6 7 -7 10 -15 7
-18z m416 -4 c-2 -3 -12 3 -22 13 -16 17 -16 18 5 5 12 -7 20 -15 17 -18z
m833 -3 c-3 -7 -5 -2 -5 12 0 14 2 19 5 13 2 -7 2 -19 0 -25z m180 10 c-3 -8
-6 -5 -6 6 -1 11 2 17 5 13 3 -3 4 -12 1 -19z m-2660 -18 c0 -17 -4 -26 -8
-19 -5 8 -8 6 -11 -7 -3 -17 -4 -17 -10 4 -3 12 -2 20 2 17 5 -3 11 4 15 15 9
28 12 25 12 -10z m123 26 c0 -2 -8 -10 -17 -17 -16 -13 -17 -12 -4 4 13 16 21
21 21 13z m1034 -13 c-5 -15 -3 -15 10 1 12 15 19 17 26 8 6 -6 7 -10 4 -7 -9
6 -34 -14 -34 -27 0 -5 6 -6 13 -1 20 13 36 12 48 -3 9 -12 9 -13 -4 -9 -8 4
-18 2 -22 -4 -4 -8 -12 -8 -25 -1 -15 8 -21 6 -30 -9 -13 -26 -13 -34 3 -25 8
5 8 2 -2 -9 -11 -14 -11 -17 0 -17 21 0 -32 -33 -55 -34 -12 -1 -27 -5 -35
-10 -8 -5 -7 1 4 18 10 15 16 29 13 32 -5 4 -58 -70 -58 -82 0 -4 6 -1 14 5
12 10 14 9 12 -5 -3 -20 -26 -32 -26 -14 0 6 -5 8 -12 4 -12 -8 -7 4 24 48 24
35 23 45 -3 22 -22 -19 -22 -19 -10 3 13 26 31 39 31 22 0 -8 4 -8 15 1 8 7
15 9 15 4 1 -13 40 36 40 50 0 6 -10 0 -21 -14 l-21 -25 15 25 c8 14 20 24 26
23 6 -2 18 8 27 22 19 29 26 32 18 8z m1929 -13 c-3 -11 -7 -20 -9 -20 -2 0
-4 9 -4 20 0 11 4 20 9 20 5 0 7 -9 4 -20z m-4318 -9 c-4 -13 2 -25 20 -39 14
-11 21 -23 16 -26 -5 -3 -12 1 -15 10 -3 8 -11 12 -17 8 -8 -4 -9 -3 -5 4 4 7
2 12 -3 12 -12 0 -15 33 -4 43 11 12 15 8 8 -12z m2750 7 c5 4 5 1 1 -6 -5 -9
-12 -9 -27 -2 -10 6 -19 13 -19 16 0 2 8 0 19 -5 10 -6 22 -7 26 -3z m1017
-17 c2 -17 1 -28 -4 -25 -8 5 -12 54 -4 54 2 0 6 -13 8 -29z m475 7 c-3 -8 -6
-5 -6 6 -1 11 2 17 5 13 3 -3 4 -12 1 -19z m-1547 0 c0 -11 -12 -10 -30 2 -12
7 -10 9 8 7 12 0 22 -5 22 -9z m867 -10 c-3 -8 -6 -5 -6 6 -1 11 2 17 5 13 3
-3 4 -12 1 -19z m481 -38 c0 -9 -3 -7 -8 5 -5 11 -8 29 -8 40 0 16 2 15 8 -5
4 -14 8 -32 8 -40z m869 38 c-3 -8 -6 -5 -6 6 -1 11 2 17 5 13 3 -3 4 -12 1
-19z m650 0 c-3 -8 -6 -5 -6 6 -1 11 2 17 5 13 3 -3 4 -12 1 -19z m-5181 -4
c-3 -8 -1 -24 4 -35 8 -13 7 -19 0 -19 -7 0 -10 -6 -7 -12 2 -7 9 -13 15 -13
5 0 13 -3 17 -7 5 -5 -14 -4 -32 1 -8 2 -18 -5 -16 -11 2 -4 -3 -5 -11 -2 -8
3 -16 -3 -19 -15 -3 -11 0 -22 6 -24 7 -2 7 -9 0 -22 -10 -16 -11 -15 -18 13
-3 18 -11 32 -15 32 -5 0 -6 -8 -3 -17 5 -13 2 -12 -14 4 -22 22 -26 53 -7 53
8 0 11 -6 8 -15 -4 -10 -2 -13 8 -10 7 3 14 16 13 28 0 12 4 23 9 24 5 0 18
15 28 32 21 32 45 43 34 15z m531 -6 c-3 -8 -6 -5 -6 6 -1 11 2 17 5 13 3 -3
4 -12 1 -19z m124 -5 c-12 -20 -14 -14 -5 12 4 9 9 14 11 11 3 -2 0 -13 -6
-23z m2976 5 c-3 -8 -6 -5 -6 6 -1 11 2 17 5 13 3 -3 4 -12 1 -19z m350 0 c-3
-8 -6 -5 -6 6 -1 11 2 17 5 13 3 -3 4 -12 1 -19z m-1727 -14 c0 -2 -9 0 -20 6
-11 6 -20 13 -20 16 0 2 9 0 20 -6 11 -6 20 -13 20 -16z m-2228 -6 c-7 -7 -12
-8 -12 -2 0 14 12 26 19 19 2 -3 -1 -11 -7 -17z m2088 12 c0 -5 -2 -10 -4 -10
-3 0 -8 5 -11 10 -3 6 -1 10 4 10 6 0 11 -4 11 -10z m345 0 c3 -6 -1 -7 -9 -4
-18 7 -21 14 -7 14 6 0 13 -4 16 -10z m1222 -12 c-3 -8 -6 -5 -6 6 -1 11 2 17
5 13 3 -3 4 -12 1 -19z m-4125 -13 c3 -14 1 -25 -3 -25 -5 0 -9 11 -9 25 0 14
2 25 4 25 2 0 6 -11 8 -25z m25 3 c-3 -8 -6 -5 -6 6 -1 11 2 17 5 13 3 -3 4
-12 1 -19z m1200 0 c-3 -8 -6 -5 -6 6 -1 11 2 17 5 13 3 -3 4 -12 1 -19z
m1478 -7 l30 -11 -30 6 c-16 3 -37 13 -45 22 -13 14 -13 15 0 5 8 -6 29 -15
45 -22z m270 -2 c-4 -5 -12 -9 -18 -8 -8 0 -8 2 1 6 10 4 9 9 -5 20 -17 13
-16 13 5 3 12 -6 20 -15 17 -21z m922 9 c-3 -8 -6 -5 -6 6 -1 11 2 17 5 13 3
-3 4 -12 1 -19z m-2850 -10 c-3 -8 -6 -5 -6 6 -1 11 2 17 5 13 3 -3 4 -12 1
-19z m1498 4 c-3 -3 -11 0 -18 7 -9 10 -8 11 6 5 10 -3 15 -9 12 -12z m762
-14 c-3 -7 -5 -2 -5 12 0 14 2 19 5 13 2 -7 2 -19 0 -25z m870 10 c-3 -8 -6
-5 -6 6 -1 11 2 17 5 13 3 -3 4 -12 1 -19z m-1567 -3 c17 -9 30 -18 30 -21 0
-2 -14 3 -31 12 -26 13 -33 14 -40 2 -5 -7 -9 -8 -9 -2 0 10 10 24 17 24 2 0
17 -7 33 -15z m717 -17 c-3 -7 -5 -2 -5 12 0 14 2 19 5 13 2 -7 2 -19 0 -25z
m-3348 -5 c0 -16 -3 -22 -6 -15 -2 6 -9 10 -14 6 -11 -6 -11 -2 -3 20 10 26
24 18 23 -11z m1122 0 c-12 -20 -14 -14 -5 12 4 9 9 14 11 11 3 -2 0 -13 -6
-23z m3869 -3 c5 8 10 10 10 4 0 -18 -13 -24 -27 -13 -7 6 -13 19 -12 28 0 10
4 6 10 -9 8 -20 12 -22 19 -10z m-2167 9 c11 -7 30 -21 41 -32 l21 -19 -25 12
c-14 7 -27 16 -30 20 -3 4 -14 12 -25 18 -26 15 -10 15 18 1z m117 -19 c8 -5
10 -10 4 -10 -7 0 -22 9 -35 21 -19 16 -20 18 -4 10 11 -6 27 -15 35 -21z
m1007 8 c-3 -8 -6 -5 -6 6 -1 11 2 17 5 13 3 -3 4 -12 1 -19z m280 0 c-3 -8
-6 -5 -6 6 -1 11 2 17 5 13 3 -3 4 -12 1 -19z m-3150 -8 c-1 -12 -5 -16 -10
-11 -5 5 -6 14 -3 20 11 16 15 13 13 -9z m1653 -14 c0 -9 -41 8 -52 22 -11 13
-8 12 20 -2 17 -9 32 -18 32 -20z m61 17 c13 -17 13 -17 -6 -3 -11 8 -22 16
-24 17 -2 2 0 3 6 3 6 0 17 -8 24 -17z m406 -5 c-3 -8 -6 -5 -6 6 -1 11 2 17
5 13 3 -3 4 -12 1 -19z m1150 0 c-3 -8 -6 -5 -6 6 -1 11 2 17 5 13 3 -3 4 -12
1 -19z m1207 6 c3 -8 2 -12 -4 -9 -6 3 -10 10 -10 16 0 14 7 11 14 -7z m-3060
-10 c3 -8 2 -12 -4 -9 -6 3 -10 10 -10 16 0 14 7 11 14 -7z m92 4 c4 -7 3 -8
-4 -4 -7 4 -12 3 -12 -2 0 -6 7 -13 16 -16 9 -4 14 -9 11 -13 -9 -8 -37 17
-37 33 0 17 16 18 26 2z m64 2 c8 -5 11 -10 5 -10 -5 0 -17 5 -25 10 -8 5 -10
10 -5 10 6 0 17 -5 25 -10z m677 -12 c-3 -8 -6 -5 -6 6 -1 11 2 17 5 13 3 -3
4 -12 1 -19z m170 -10 c-3 -7 -5 -2 -5 12 0 14 2 19 5 13 2 -7 2 -19 0 -25z
m200 10 c-3 -8 -6 -5 -6 6 -1 11 2 17 5 13 3 -3 4 -12 1 -19z m300 -10 c-3 -7
-5 -2 -5 12 0 14 2 19 5 13 2 -7 2 -19 0 -25z m260 10 c-3 -8 -6 -5 -6 6 -1
11 2 17 5 13 3 -3 4 -12 1 -19z m172 -18 c0 -10 -3 -8 -9 5 -12 27 -12 43 0
25 5 -8 9 -22 9 -30z m-3238 -4 c-6 -14 -12 -26 -14 -26 -8 0 -3 35 7 46 16
17 18 11 7 -20z m1282 20 c4 -10 1 -13 -8 -9 -8 3 -12 9 -9 14 7 12 11 11 17
-5z m704 -8 c-3 -8 -6 -5 -6 6 -1 11 2 17 5 13 3 -3 4 -12 1 -19z m-2054 -3
c-3 -9 -8 -14 -10 -11 -3 3 -2 9 2 15 9 16 15 13 8 -4z m1807 5 c13 -8 13 -10
-2 -10 -9 0 -20 5 -23 10 -8 13 5 13 25 0z m547 -57 c-2 -16 -4 -5 -4 22 0 28
2 40 4 28 2 -13 2 -35 0 -50z m500 35 c-3 -7 -5 -2 -5 12 0 14 2 19 5 13 2 -7
2 -19 0 -25z m500 10 c-3 -8 -6 -5 -6 6 -1 11 2 17 5 13 3 -3 4 -12 1 -19z
m653 -13 c0 -5 -5 -3 -10 5 -5 8 -10 20 -10 25 0 6 5 3 10 -5 5 -8 10 -19 10
-25z m18 10 c-3 -3 -9 2 -12 12 -6 14 -5 15 5 6 7 -7 10 -15 7 -18z m-1631
-17 c-3 -7 -5 -2 -5 12 0 14 2 19 5 13 2 -7 2 -19 0 -25z m230 0 c-3 -7 -5 -2
-5 12 0 14 2 19 5 13 2 -7 2 -19 0 -25z m850 10 c-3 -8 -6 -5 -6 6 -1 11 2 17
5 13 3 -3 4 -12 1 -19z m-2216 -15 c-12 -20 -14 -14 -5 12 4 9 9 14 11 11 3
-2 0 -13 -6 -23z m74 17 c-3 -5 -12 -10 -18 -10 -7 0 -6 4 3 10 19 12 23 12
15 0z m460 -8 c-3 -3 -11 0 -18 7 -9 10 -8 11 6 5 10 -3 15 -9 12 -12z m1132
-14 c-3 -7 -5 -2 -5 12 0 14 2 19 5 13 2 -7 2 -19 0 -25z m953 -3 c0 -5 -5 -3
-10 5 -5 8 -10 20 -10 25 0 6 5 3 10 -5 5 -8 10 -19 10 -25z m-5047 12 c4 3 7
1 7 -6 0 -17 -32 -10 -38 9 -4 12 -3 13 10 3 8 -7 18 -10 21 -6z m318 -9 c-5
-14 -17 -22 -34 -22 -14 -1 -23 2 -21 6 3 4 13 8 24 8 10 0 20 7 24 15 3 8 8
15 10 15 3 0 2 -10 -3 -22z m779 10 c0 -9 4 -8 10 2 5 8 10 11 10 5 0 -24 -16
-30 -32 -13 -15 15 -15 18 -3 18 8 0 15 -6 15 -12z m1251 -7 c-9 -16 -3 -22
41 -46 35 -19 53 -24 56 -17 2 7 8 9 13 6 16 -10 59 5 59 21 0 10 6 12 18 8
14 -6 15 -4 5 8 -10 13 -10 16 1 16 8 0 13 -8 11 -19 -3 -12 6 -23 25 -33 37
-19 40 -19 40 3 0 13 2 14 9 4 4 -8 11 -13 15 -13 19 3 27 0 22 -8 -3 -5 3
-11 14 -14 21 -5 27 7 10 18 -8 5 -7 11 1 21 13 16 -2 19 -18 3 -8 -8 -13 -7
-18 2 -5 7 -4 10 3 5 6 -3 13 -2 17 4 5 9 -9 15 -18 8 -2 -2 -12 5 -22 16 -18
17 -19 17 -32 0 -7 -9 -10 -20 -7 -23 3 -3 9 1 14 9 6 9 10 10 10 3 0 -17 -18
-25 -33 -16 -11 6 -10 12 7 31 l22 22 52 -27 c53 -27 66 -43 35 -43 -12 0 -14
-3 -7 -8 7 -4 13 -16 15 -26 2 -11 10 -21 18 -24 8 -3 11 0 7 6 -3 6 -2 13 4
17 6 4 8 11 5 16 -3 5 1 6 10 3 8 -4 21 -1 29 5 10 9 15 8 19 -3 4 -11 1 -13
-11 -9 -15 6 -16 5 -2 -13 14 -17 14 -18 -2 -6 -9 8 -22 11 -28 7 -7 -4 -1
-14 14 -26 25 -20 41 -25 32 -11 -3 5 2 9 11 9 9 0 -3 -18 -32 -45 -44 -42
-47 -44 -63 -28 -16 16 -16 17 2 10 16 -6 17 -4 8 13 -6 11 -8 23 -5 27 7 7
-35 46 -50 46 -12 0 -77 -40 -77 -47 0 -3 7 -2 16 1 8 3 12 2 9 -4 -7 -12 -3
-12 20 -4 10 4 13 9 6 13 -6 4 -2 12 10 20 16 9 19 10 13 0 -5 -9 -2 -11 9 -6
17 6 32 -19 16 -28 -5 -4 -7 -10 -5 -14 3 -4 -13 -6 -35 -5 -32 2 -39 -1 -35
-13 5 -11 2 -13 -9 -9 -9 3 -27 -1 -40 -10 -19 -12 -28 -13 -45 -4 -14 7 -26
8 -31 3 -6 -6 6 -17 31 -28 22 -10 40 -22 40 -27 0 -5 5 -6 10 -3 6 4 8 10 5
15 -3 5 -1 11 5 15 5 3 10 1 10 -5 0 -6 6 -8 13 -5 6 4 1 -3 -13 -15 -18 -16
-20 -20 -7 -16 12 4 16 2 11 -5 -4 -7 -1 -10 7 -7 8 3 13 11 11 17 -1 7 2 10
7 6 12 -7 33 29 23 40 -4 5 -1 5 6 1 7 -4 10 -12 7 -17 -4 -5 -3 -9 2 -9 11 1
49 30 38 30 -4 0 -6 2 -3 5 3 3 13 2 23 -1 14 -6 12 -9 -14 -20 -17 -7 -30
-17 -29 -21 4 -12 -38 -63 -46 -56 -3 3 -6 -2 -6 -11 0 -13 -5 -16 -16 -12
-11 4 -15 2 -11 -8 3 -8 -5 -19 -19 -26 -13 -8 -24 -16 -24 -20 0 -13 -79 -88
-86 -81 -4 3 -4 -2 -1 -11 4 -12 2 -15 -9 -11 -8 3 -14 -1 -14 -11 0 -16 -20
-18 -31 -2 -4 5 -12 5 -19 1 -9 -6 -7 -11 7 -19 19 -11 19 -12 -10 -35 -29
-24 -29 -24 -18 -3 6 12 17 22 24 22 7 0 4 5 -5 11 -12 7 -24 6 -39 -2 -17 -8
-20 -8 -14 1 5 8 3 11 -6 8 -8 -3 -14 -10 -14 -16 0 -5 -4 -14 -9 -19 -5 -5
-6 -3 -2 5 8 13 -4 16 -20 4 -5 -4 0 1 11 12 11 10 19 25 17 34 -3 13 -1 12
13 -2 17 -17 40 -22 31 -7 -3 5 2 15 12 22 15 13 16 12 3 -3 -8 -11 -9 -18 -3
-18 6 0 14 5 17 10 4 6 15 8 25 5 22 -7 32 6 20 25 -7 11 -3 20 13 33 17 15
18 18 4 13 -10 -3 -15 -2 -12 3 3 5 1 12 -5 16 -16 10 -12 24 13 35 20 10 20
10 5 -3 -20 -16 -25 -32 -6 -21 7 5 8 3 3 -6 -6 -10 -4 -12 9 -7 11 5 15 3 10
-4 -4 -7 -1 -10 7 -7 8 3 14 10 14 15 0 6 4 15 9 20 5 5 6 3 2 -4 -4 -8 -2
-13 5 -13 7 0 5 -6 -6 -13 -12 -9 -14 -16 -7 -21 12 -7 35 27 25 37 -3 3 -1
20 5 36 11 32 3 41 -17 18 -6 -8 -7 -18 -3 -23 4 -5 3 -6 -2 -2 -5 4 -14 0
-21 -8 -9 -14 -11 -10 -9 20 2 20 -1 36 -6 36 -6 0 -10 -6 -10 -14 0 -8 -4
-18 -10 -21 -18 -11 2 30 24 47 27 23 8 23 -24 1 -21 -14 -23 -14 -12 -1 10
13 9 16 -10 21 -22 6 -23 7 -3 22 15 13 16 15 3 11 -13 -4 -16 0 -12 22 6 30
21 52 37 52 6 0 4 -6 -5 -12 -8 -7 -18 -21 -22 -32 -5 -14 -3 -17 11 -12 10 4
14 4 10 0 -9 -10 33 -45 46 -37 6 3 7 1 3 -5 -4 -7 -4 -12 1 -12 4 0 13 11 20
25 12 27 5 32 -17 13 -12 -11 -12 -10 -1 5 15 20 2 23 -19 5 -12 -11 -12 -10
-1 4 10 14 9 18 -6 27 -16 10 -16 11 -1 9 9 -2 17 1 17 5 -1 4 7 20 16 34 14
21 15 27 4 34 -18 11 -26 11 -34 -1 -4 -7 -13 -6 -26 1 -16 8 -18 13 -8 25 8
10 8 14 0 14 -6 0 -17 -11 -23 -25 -8 -19 -14 -22 -24 -14 -7 6 -18 7 -25 3
-8 -5 -4 -11 12 -21 27 -16 8 -11 -33 9 -16 7 -28 17 -28 21 0 4 9 3 19 -3 14
-7 22 -7 26 0 4 6 -7 15 -24 21 -17 6 -28 15 -25 21 4 6 9 6 13 1 3 -4 18 -13
32 -20 22 -9 27 -8 37 8 14 22 3 25 -18 7 -11 -10 -11 -9 0 6 14 18 13 19 -2
13 -10 -3 -17 -3 -17 1 3 19 -2 23 -16 12 -8 -7 -15 -9 -15 -5 0 4 -8 1 -17
-6 -15 -12 -16 -12 -8 1 14 24 48 70 52 70 2 0 -1 -8 -6 -19z m1426 -13 c-3
-7 -5 -2 -5 12 0 14 2 19 5 13 2 -7 2 -19 0 -25z m976 12 c3 -11 1 -18 -4 -14
-5 3 -9 12 -9 20 0 20 7 17 13 -6z m-2046 4 c-3 -3 -12 -4 -19 -1 -8 3 -5 6 6
6 11 1 17 -2 13 -5z m53 2 c0 -3 -4 -8 -10 -11 -5 -3 -10 -1 -10 4 0 6 5 11
10 11 6 0 10 -2 10 -4z m51 -13 c11 -15 11 -16 -1 -5 -20 17 -33 15 -25 -5 5
-14 3 -15 -6 -6 -11 11 -5 33 10 33 5 0 15 -8 22 -17z m1336 -15 c-3 -7 -5 -2
-5 12 0 14 2 19 5 13 2 -7 2 -19 0 -25z m-4188 0 c-1 -17 -2 -19 -6 -5 -5 20
-7 20 -36 6 -21 -10 -21 -10 -3 5 28 23 46 20 45 -6z m456 12 c-3 -5 3 -10 15
-10 12 0 18 -4 15 -11 -4 -6 -13 -8 -21 -5 -10 4 -16 -4 -21 -24 -3 -17 -9
-33 -13 -35 -5 -3 -6 4 -3 15 4 15 1 18 -16 15 -22 -4 -43 16 -23 23 7 2 12
10 12 17 0 12 11 17 53 24 5 0 5 -3 2 -9z m2632 -12 c-3 -8 -6 -5 -6 6 -1 11
2 17 5 13 3 -3 4 -12 1 -19z m280 0 c-3 -8 -6 -5 -6 6 -1 11 2 17 5 13 3 -3 4
-12 1 -19z m220 0 c-3 -8 -6 -5 -6 6 -1 11 2 17 5 13 3 -3 4 -12 1 -19z m650
0 c-3 -8 -6 -5 -6 6 -1 11 2 17 5 13 3 -3 4 -12 1 -19z m-1454 -2 c16 -12 16
-14 2 -20 -9 -3 -13 -2 -10 3 3 6 -3 14 -12 20 -10 6 -13 10 -8 10 6 0 18 -6
28 -13z m434 -8 c-3 -8 -6 -5 -6 6 -1 11 2 17 5 13 3 -3 4 -12 1 -19z m440
-15 c-3 -10 -5 -4 -5 12 0 17 2 24 5 18 2 -7 2 -21 0 -30z m1543 2 c0 -5 -5
-3 -10 5 -5 8 -10 20 -10 25 0 6 5 3 10 -5 5 -8 10 -19 10 -25z m-2670 10 c0
-12 -19 -12 -23 0 -4 9 -1 12 9 8 7 -3 14 -7 14 -8z m1337 -7 c-3 -8 -6 -5 -6
6 -1 11 2 17 5 13 3 -3 4 -12 1 -19z m350 0 c-3 -8 -6 -5 -6 6 -1 11 2 17 5
13 3 -3 4 -12 1 -19z m190 0 c-3 -8 -6 -5 -6 6 -1 11 2 17 5 13 3 -3 4 -12 1
-19z m-3394 -3 c-3 -9 -8 -14 -10 -11 -3 3 -2 9 2 15 9 16 15 13 8 -4z m32 5
c3 -5 1 -10 -4 -10 -6 0 -11 5 -11 10 0 6 2 10 4 10 3 0 8 -4 11 -10z m1820
-8 c-3 -3 -11 0 -18 7 -9 10 -8 11 6 5 10 -3 15 -9 12 -12z m63 -11 c-28 -36
-48 -45 -62 -31 -8 8 -6 9 7 5 16 -7 25 9 10 18 -5 2 -2 2 5 0 16 -3 44 22 35
31 -4 3 2 6 11 6 15 0 15 -4 -6 -29z m709 -18 c-3 -10 -5 -2 -5 17 0 19 2 27
5 18 2 -10 2 -26 0 -35z m320 25 c-3 -8 -6 -5 -6 6 -1 11 2 17 5 13 3 -3 4
-12 1 -19z m310 -10 c-3 -7 -5 -2 -5 12 0 14 2 19 5 13 2 -7 2 -19 0 -25z m75
7 c3 -13 1 -22 -3 -19 -9 5 -13 44 -5 44 2 0 6 -11 8 -25z m-4388 1 c5 13 9
14 21 4 8 -7 15 -18 15 -24 0 -6 -5 -3 -11 8 -9 15 -13 16 -20 5 -13 -20 -11
-31 3 -23 7 4 10 3 5 -1 -12 -13 -47 -16 -47 -4 0 5 5 7 10 4 6 -3 10 -2 10 4
0 5 -4 13 -10 16 -5 3 -10 12 -10 18 0 7 7 4 14 -6 12 -16 14 -16 20 -1z m216
-21 c0 -5 -5 -3 -10 5 -5 8 -10 20 -10 25 0 6 5 3 10 -5 5 -8 10 -19 10 -25z
m63 20 c-3 -9 -8 -14 -10 -11 -3 3 -2 9 2 15 9 16 15 13 8 -4z m287 3 c0 -4
-7 -8 -15 -8 -8 0 -15 -5 -15 -11 0 -5 6 -7 13 -3 6 4 8 3 4 -1 -8 -9 -37 -16
-37 -9 0 2 5 12 11 22 12 19 39 26 39 10z m3367 -10 c-3 -8 -6 -5 -6 6 -1 11
2 17 5 13 3 -3 4 -12 1 -19z m50 -30 c-2 -13 -4 -5 -4 17 -1 22 1 32 4 23 2
-10 2 -28 0 -40z m260 30 c-3 -8 -6 -5 -6 6 -1 11 2 17 5 13 3 -3 4 -12 1 -19z
m120 -10 c-3 -7 -5 -2 -5 12 0 14 2 19 5 13 2 -7 2 -19 0 -25z m70 10 c-3 -8
-6 -5 -6 6 -1 11 2 17 5 13 3 -3 4 -12 1 -19z m-3832 2 c3 -6 -1 -7 -9 -4 -18
7 -21 14 -7 14 6 0 13 -4 16 -10z m2812 -12 c-3 -8 -6 -5 -6 6 -1 11 2 17 5
13 3 -3 4 -12 1 -19z m550 -40 c-2 -13 -4 -3 -4 22 0 25 2 35 4 23 2 -13 2
-33 0 -45z m330 40 c-3 -8 -6 -5 -6 6 -1 11 2 17 5 13 3 -3 4 -12 1 -19z m120
0 c-3 -8 -6 -5 -6 6 -1 11 2 17 5 13 3 -3 4 -12 1 -19z m120 -10 c-3 -7 -5 -2
-5 12 0 14 2 19 5 13 2 -7 2 -19 0 -25z m800 10 c-3 -8 -6 -5 -6 6 -1 11 2 17
5 13 3 -3 4 -12 1 -19z m-4387 5 c-1 -25 -50 -57 -50 -33 0 15 18 21 24 8 4
-7 4 -3 2 10 -3 14 1 22 10 22 8 0 14 -3 14 -7z m74 -14 c-6 -11 -24 -2 -24
11 0 5 7 7 15 4 8 -4 12 -10 9 -15z m136 15 c0 -8 -19 -13 -24 -6 -3 5 1 9 9
9 8 0 15 -2 15 -3z m1927 -41 c-3 -10 -5 -2 -5 17 0 19 2 27 5 18 2 -10 2 -26
0 -35z m20 0 c-3 -10 -5 -2 -5 17 0 19 2 27 5 18 2 -10 2 -26 0 -35z m290 25
c-3 -8 -6 -5 -6 6 -1 11 2 17 5 13 3 -3 4 -12 1 -19z m270 -15 c-3 -10 -5 -4
-5 12 0 17 2 24 5 18 2 -7 2 -21 0 -30z m370 -15 c-2 -13 -4 -5 -4 17 -1 22 1
32 4 23 2 -10 2 -28 0 -40z m-3929 17 c-3 -3 -9 2 -12 12 -6 14 -5 15 5 6 7
-7 10 -15 7 -18z m347 4 c5 -6 4 -9 -4 -9 -7 0 -9 -5 -5 -12 4 -7 4 -10 -1 -6
-5 5 -15 -2 -23 -13 -13 -19 -16 -20 -24 -5 -13 23 -25 20 -42 -11 -8 -16 -15
-24 -16 -19 0 5 -9 1 -20 -9 -11 -10 -17 -22 -14 -26 3 -5 -2 -6 -10 -3 -9 3
-16 11 -16 17 0 6 2 8 6 5 3 -3 17 6 33 21 18 18 25 31 19 42 -6 13 -2 15 18
11 20 -4 26 0 31 17 5 18 11 21 32 16 14 -4 30 -11 36 -16z m2612 -11 c-3 -7
-5 -2 -5 12 0 14 2 19 5 13 2 -7 2 -19 0 -25z m220 0 c-3 -7 -5 -2 -5 12 0 14
2 19 5 13 2 -7 2 -19 0 -25z m450 -20 c-2 -13 -4 -5 -4 17 -1 22 1 32 4 23 2
-10 2 -28 0 -40z m-2876 19 c-10 -9 -11 -8 -5 6 3 10 9 15 12 12 3 -3 0 -11
-7 -18z m2316 1 c-3 -8 -6 -5 -6 6 -1 11 2 17 5 13 3 -3 4 -12 1 -19z m130
-75 c-2 -21 -4 -6 -4 32 0 39 2 55 4 38 2 -18 2 -50 0 -70z m-2426 64 c-10 -9
-11 -8 -5 6 3 10 9 15 12 12 3 -3 0 -11 -7 -18z m3226 -14 c-3 -10 -5 -4 -5
12 0 17 2 24 5 18 2 -7 2 -21 0 -30z m667 21 c3 -8 2 -12 -4 -9 -6 3 -10 10
-10 16 0 14 7 11 14 -7z m-1513 -26 c-3 -21 -6 -26 -9 -15 -3 17 3 47 11 47 2
0 1 -15 -2 -32z m186 -5 c-3 -10 -5 -4 -5 12 0 17 2 24 5 18 2 -7 2 -21 0 -30z
m20 -45 c-2 -18 -4 -6 -4 27 0 33 2 48 4 33 2 -15 2 -42 0 -60z m40 45 c-3
-10 -5 -4 -5 12 0 17 2 24 5 18 2 -7 2 -21 0 -30z m580 -10 c-3 -10 -5 -2 -5
17 0 19 2 27 5 18 2 -10 2 -26 0 -35z m1057 31 c3 -8 2 -12 -4 -9 -6 3 -10 10
-10 16 0 14 7 11 14 -7z m-4671 -51 c-5 -12 -3 -14 7 -8 8 5 11 4 7 -3 -5 -7
-14 -7 -31 1 -20 9 -22 14 -10 20 8 4 14 18 15 30 l0 22 9 -23 c5 -12 6 -30 3
-39z m60 39 c-5 -10 -8 -11 -13 -2 -4 7 -12 10 -18 6 -6 -3 -14 -2 -17 4 -4 6
5 10 23 8 21 -1 28 -6 25 -16z m457 3 c0 -1 -9 -5 -19 -8 -13 -3 -18 -1 -14 9
4 10 33 10 33 -1z m63 -1 c4 -1 9 -2 12 -3 4 0 2 -9 -3 -18 -13 -22 -43 -27
-35 -5 4 10 2 13 -5 8 -7 -4 -12 -1 -12 7 0 19 11 28 24 19 6 -4 14 -7 19 -8z
m1213 -16 c-18 -26 -22 -17 -5 14 6 11 13 17 16 15 3 -3 -2 -16 -11 -29z
m1451 -20 c-2 -13 -4 -5 -4 17 -1 22 1 32 4 23 2 -10 2 -28 0 -40z m440 30
c-3 -8 -6 -5 -6 6 -1 11 2 17 5 13 3 -3 4 -12 1 -19z m1080 0 c-3 -8 -6 -5 -6
6 -1 11 2 17 5 13 3 -3 4 -12 1 -19z m50 0 c-3 -8 -6 -5 -6 6 -1 11 2 17 5 13
3 -3 4 -12 1 -19z m-4485 -10 c-7 -7 -12 -8 -12 -2 0 14 12 26 19 19 2 -3 -1
-11 -7 -17z m88 3 c-14 -27 -27 -34 -36 -20 -5 8 -3 9 6 4 10 -6 12 -4 7 9 -4
9 -3 14 2 11 5 -3 12 -1 16 5 11 18 16 10 5 -9z m2347 -33 c-2 -13 -4 -5 -4
17 -1 22 1 32 4 23 2 -10 2 -28 0 -40z m830 30 c-3 -8 -6 -5 -6 6 -1 11 2 17
5 13 3 -3 4 -12 1 -19z m-3676 -28 c4 -3 6 -16 2 -28 -4 -16 -13 -22 -32 -22
-17 0 -22 3 -13 9 7 4 12 12 11 17 -1 5 2 23 6 39 8 25 10 26 13 10 2 -11 8
-22 13 -25z m2626 3 c-3 -10 -5 -4 -5 12 0 17 2 24 5 18 2 -7 2 -21 0 -30z
m20 -10 c-3 -10 -5 -2 -5 17 0 19 2 27 5 18 2 -10 2 -26 0 -35z m20 0 c-3 -10
-5 -2 -5 17 0 19 2 27 5 18 2 -10 2 -26 0 -35z m160 10 c-3 -10 -5 -4 -5 12 0
17 2 24 5 18 2 -7 2 -21 0 -30z m480 -25 c-2 -13 -4 -3 -4 22 0 25 2 35 4 23
2 -13 2 -33 0 -45z m300 40 c-3 -8 -6 -5 -6 6 -1 11 2 17 5 13 3 -3 4 -12 1
-19z m140 -10 c-3 -7 -5 -2 -5 12 0 14 2 19 5 13 2 -7 2 -19 0 -25z m-3122
-39 c4 -24 3 -39 -5 -44 -7 -5 -9 2 -5 22 l5 28 -15 -30 -15 -30 7 40 c3 22 6
49 5 60 -2 31 15 -2 23 -46z m2752 -6 c-2 -16 -4 -5 -4 22 0 28 2 40 4 28 2
-13 2 -35 0 -50z m490 45 c-3 -8 -6 -5 -6 6 -1 11 2 17 5 13 3 -3 4 -12 1 -19z
m-3496 -11 c-10 -9 -11 -8 -5 6 3 10 9 15 12 12 3 -3 0 -11 -7 -18z m81 8 c4
-5 5 -21 2 -35 -4 -20 -3 -22 5 -10 7 9 11 10 11 3 0 -23 -21 -25 -27 -3 l-6
22 -13 -23 c-8 -15 -13 -18 -14 -9 0 13 -1 13 -11 0 -9 -13 -10 -13 -6 0 2 8
9 14 15 13 13 -3 26 33 17 47 -8 13 18 8 27 -5z m126 1 c-7 -8 -15 -12 -17
-11 -5 6 10 25 20 25 5 0 4 -6 -3 -14z m-968 -6 c0 -5 -2 -10 -4 -10 -3 0 -8
5 -11 10 -3 6 -1 10 4 10 6 0 11 -4 11 -10z m936 -7 c-4 -9 -1 -20 5 -24 7 -4
9 -14 4 -25 -7 -18 -8 -18 -15 2 -10 25 -30 41 -30 24 0 -6 -4 -8 -10 -5 -5 3
-10 1 -10 -6 0 -7 -3 -10 -6 -7 -3 4 0 16 6 28 9 17 14 19 26 10 11 -10 15 -9
20 4 3 9 8 16 11 16 3 0 2 -8 -1 -17z m1440 8 c-3 -4 6 -13 20 -20 32 -14 32
-14 38 7 4 13 4 13 3 -3 -1 -11 2 -25 6 -31 4 -7 -1 -18 -11 -25 -15 -13 -16
-12 -4 3 11 14 10 18 -8 28 -11 6 -24 9 -28 7 -4 -2 -15 4 -24 14 -12 12 -13
19 -5 23 18 7 19 7 13 -3z m110 -25 c1 -31 1 -31 -10 -6 -6 14 -15 28 -21 32
-5 4 -1 6 10 6 15 -2 20 -10 21 -32z m962 0 c0 -28 -3 -33 -19 -29 -10 3 -19
13 -19 22 0 13 2 14 9 2 8 -12 11 -9 16 12 9 36 13 34 13 -7z m339 12 c-3 -8
-6 -5 -6 6 -1 11 2 17 5 13 3 -3 4 -12 1 -19z m330 0 c-3 -8 -6 -5 -6 6 -1 11
2 17 5 13 3 -3 4 -12 1 -19z m70 0 c-3 -8 -6 -5 -6 6 -1 11 2 17 5 13 3 -3 4
-12 1 -19z m100 -10 c-3 -7 -5 -2 -5 12 0 14 2 19 5 13 2 -7 2 -19 0 -25z
m-1505 8 c7 4 8 2 4 -4 -4 -6 -13 -9 -21 -6 -8 4 -12 11 -8 17 5 8 8 7 11 -1
2 -7 9 -9 14 -6z m185 -18 c-3 -7 -5 -2 -5 12 0 14 2 19 5 13 2 -7 2 -19 0
-25z m180 0 c-3 -7 -5 -2 -5 12 0 14 2 19 5 13 2 -7 2 -19 0 -25z m43 -8 c-5
-22 -8 -27 -9 -13 -1 21 9 56 14 51 2 -2 0 -19 -5 -38z m73 15 c-7 -21 -13
-19 -13 6 0 11 4 18 10 14 5 -3 7 -12 3 -20z m904 -7 c-3 -7 -5 -2 -5 12 0 14
2 19 5 13 2 -7 2 -19 0 -25z m170 0 c-3 -7 -5 -2 -5 12 0 14 2 19 5 13 2 -7 2
-19 0 -25z m100 10 c-3 -8 -6 -5 -6 6 -1 11 2 17 5 13 3 -3 4 -12 1 -19z m250
-10 c-3 -7 -5 -2 -5 12 0 14 2 19 5 13 2 -7 2 -19 0 -25z m-4517 17 c0 -2 -10
-9 -22 -15 -22 -11 -22 -10 -4 4 21 17 26 19 26 11z m2817 -27 c-3 -7 -5 -2
-5 12 0 14 2 19 5 13 2 -7 2 -19 0 -25z m340 10 c-3 -8 -6 -5 -6 6 -1 11 2 17
5 13 3 -3 4 -12 1 -19z m53 12 c0 -5 -5 -10 -11 -10 -5 0 -7 5 -4 10 3 6 8 10
11 10 2 0 4 -4 4 -10z m177 -12 c-3 -8 -6 -5 -6 6 -1 11 2 17 5 13 3 -3 4 -12
1 -19z m70 -10 c-3 -7 -5 -2 -5 12 0 14 2 19 5 13 2 -7 2 -19 0 -25z m120 -35
c-2 -16 -4 -5 -4 22 0 28 2 40 4 28 2 -13 2 -35 0 -50z m90 20 c-3 -10 -5 -2
-5 17 0 19 2 27 5 18 2 -10 2 -26 0 -35z m400 25 c-3 -8 -6 -5 -6 6 -1 11 2
17 5 13 3 -3 4 -12 1 -19z m150 -10 c-3 -7 -5 -2 -5 12 0 14 2 19 5 13 2 -7 2
-19 0 -25z m-4392 12 c3 -5 1 -10 -4 -10 -6 0 -11 5 -11 10 0 6 2 10 4 10 3 0
8 -4 11 -10z m2341 -6 c-4 -11 -2 -15 8 -11 10 4 13 1 9 -8 -3 -8 -9 -13 -13
-10 -5 3 -11 1 -14 -4 -6 -10 21 -24 33 -16 4 2 8 -2 8 -9 0 -8 -7 -12 -15 -8
-11 4 -13 1 -7 -8 5 -8 4 -11 -2 -7 -5 3 -16 -10 -25 -29 -9 -18 -11 -34 -6
-34 5 0 13 10 18 23 5 12 9 16 9 9 1 -7 6 -10 11 -7 6 4 7 11 4 17 -4 7 -2 8
5 4 8 -5 9 -12 2 -19 -14 -18 -75 -52 -66 -38 4 8 2 11 -7 9 -7 -2 -14 2 -14
7 0 6 6 9 12 7 16 -3 27 15 14 23 -5 3 -19 1 -30 -5 -11 -6 -20 -8 -20 -6 0 3
14 12 30 21 17 9 30 12 30 8 0 -4 6 2 14 13 21 28 12 29 -25 3 -22 -15 -34
-19 -37 -11 -2 7 -8 12 -14 12 -6 0 -8 -7 -5 -15 4 -8 2 -17 -4 -20 -5 -4 -8
6 -7 24 1 16 6 27 11 24 4 -3 15 3 23 13 9 11 13 13 9 7 -9 -19 7 -15 35 8 14
12 18 19 9 16 -9 -3 -16 1 -16 8 0 7 6 11 14 8 7 -3 13 0 13 6 0 6 3 11 6 11
3 0 3 -7 0 -16z m1171 -36 c-2 -13 -4 -5 -4 17 -1 22 1 32 4 23 2 -10 2 -28 0
-40z m570 30 c-3 -8 -6 -5 -6 6 -1 11 2 17 5 13 3 -3 4 -12 1 -19z m240 -10
c-3 -7 -5 -2 -5 12 0 14 2 19 5 13 2 -7 2 -19 0 -25z m320 10 c-3 -8 -6 -5 -6
6 -1 11 2 17 5 13 3 -3 4 -12 1 -19z m150 0 c-3 -8 -6 -5 -6 6 -1 11 2 17 5
13 3 -3 4 -12 1 -19z m-4504 -9 c5 -3 2 -9 -7 -12 -12 -5 -16 0 -16 15 0 12 3
17 8 12 4 -5 11 -12 15 -15z m478 -6 c-12 -20 -14 -14 -5 12 4 9 9 14 11 11 3
-2 0 -13 -6 -23z m2446 5 c-3 -8 -6 -5 -6 6 -1 11 2 17 5 13 3 -3 4 -12 1 -19z
m611 -44 l-3 -49 -5 57 c-3 31 -1 53 3 49 5 -5 7 -30 5 -57z m89 29 c-3 -10
-5 -4 -5 12 0 17 2 24 5 18 2 -7 2 -21 0 -30z m240 15 c-3 -8 -6 -5 -6 6 -1
11 2 17 5 13 3 -3 4 -12 1 -19z m520 0 c-3 -8 -6 -5 -6 6 -1 11 2 17 5 13 3
-3 4 -12 1 -19z m50 0 c-3 -8 -6 -5 -6 6 -1 11 2 17 5 13 3 -3 4 -12 1 -19z
m-4597 6 c0 -8 -19 -13 -24 -6 -3 5 1 9 9 9 8 0 15 -2 15 -3z m565 -3 c3 -5 0
-13 -6 -17 -7 -4 -9 -3 -5 4 3 5 0 13 -6 15 -9 4 -10 6 -1 6 6 1 14 -3 18 -8z
m2040 -1 c3 -6 -1 -7 -9 -4 -18 7 -21 14 -7 14 6 0 13 -4 16 -10z m392 -27
c-3 -10 -5 -4 -5 12 0 17 2 24 5 18 2 -7 2 -21 0 -30z m1250 15 c-3 -8 -6 -5
-6 6 -1 11 2 17 5 13 3 -3 4 -12 1 -19z m50 0 c-3 -8 -6 -5 -6 6 -1 11 2 17 5
13 3 -3 4 -12 1 -19z m-3506 -15 c-12 -20 -14 -14 -5 12 4 9 9 14 11 11 3 -2
0 -13 -6 -23z m1509 21 c0 -8 -19 -13 -24 -6 -3 5 1 9 9 9 8 0 15 -2 15 -3z
m510 -51 c-10 -16 -11 -15 -6 7 3 14 6 32 7 40 1 8 4 5 6 -7 2 -12 -1 -30 -7
-40z m27 35 c-3 -8 -6 -5 -6 6 -1 11 2 17 5 13 3 -3 4 -12 1 -19z m180 -15
c-3 -10 -5 -4 -5 12 0 17 2 24 5 18 2 -7 2 -21 0 -30z m420 5 c-3 -7 -5 -2 -5
12 0 14 2 19 5 13 2 -7 2 -19 0 -25z m50 0 c-3 -7 -5 -2 -5 12 0 14 2 19 5 13
2 -7 2 -19 0 -25z m370 10 c-3 -8 -6 -5 -6 6 -1 11 2 17 5 13 3 -3 4 -12 1
-19z m570 -15 c-3 -10 -5 -4 -5 12 0 17 2 24 5 18 2 -7 2 -21 0 -30z m-4297
18 c0 -6 -4 -13 -10 -16 -5 -3 -10 1 -10 9 0 9 5 16 10 16 6 0 10 -4 10 -9z
m63 -6 c-3 -9 -8 -14 -10 -11 -3 3 -2 9 2 15 9 16 15 13 8 -4z m347 0 c0 -8
-4 -15 -10 -15 -5 0 -7 7 -4 15 4 8 8 15 10 15 2 0 4 -7 4 -15z m1490 11 c0
-2 -7 -9 -15 -16 -13 -11 -14 -10 -9 4 5 14 24 23 24 12z m336 -11 c-1 -8 -8
-21 -16 -28 -12 -10 -12 -9 -1 6 10 12 10 17 2 17 -7 0 -9 5 -6 10 9 15 24 12
21 -5z m416 -10 c3 -13 1 -22 -3 -19 -9 5 -13 44 -5 44 2 0 6 -11 8 -25z m825
-27 c-2 -13 -4 -5 -4 17 -1 22 1 32 4 23 2 -10 2 -28 0 -40z m160 -10 c-2 -13
-4 -3 -4 22 0 25 2 35 4 23 2 -13 2 -33 0 -45z m460 40 c-3 -8 -6 -5 -6 6 -1
11 2 17 5 13 3 -3 4 -12 1 -19z m-3977 8 c0 -11 -19 -15 -25 -6 -3 5 1 10 9
10 9 0 16 -2 16 -4z m70 -6 c0 -5 -2 -10 -4 -10 -3 0 -8 5 -11 10 -3 6 -1 10
4 10 6 0 11 -4 11 -10z m350 -15 c-7 -8 -16 -12 -21 -10 -4 3 -13 -4 -20 -17
-11 -21 -12 -21 -25 -3 -9 12 -14 14 -14 5 0 -7 -2 -11 -5 -8 -3 3 -3 12 1 21
5 13 10 14 25 6 15 -8 21 -6 26 6 4 13 8 14 14 4 6 -10 9 -9 15 4 3 10 9 16
12 13 3 -3 -1 -12 -8 -21z m47 3 c-3 -8 -6 -5 -6 6 -1 11 2 17 5 13 3 -3 4
-12 1 -19z m2210 0 c-3 -8 -6 -5 -6 6 -1 11 2 17 5 13 3 -3 4 -12 1 -19z
m1230 0 c-3 -8 -6 -5 -6 6 -1 11 2 17 5 13 3 -3 4 -12 1 -19z m-3990 -15 c1
-22 -1 -24 -9 -10 -5 10 -15 15 -21 11 -7 -3 -3 2 7 10 11 9 20 16 20 16 1 0
2 -12 3 -27z m3290 -20 c-3 -10 -5 -2 -5 17 0 19 2 27 5 18 2 -10 2 -26 0 -35z
m380 10 c-3 -10 -5 -4 -5 12 0 17 2 24 5 18 2 -7 2 -21 0 -30z m50 5 c-3 -7
-5 -2 -5 12 0 14 2 19 5 13 2 -7 2 -19 0 -25z m-3810 -8 c-1 -22 -7 -30 -19
-28 -23 4 -69 -48 -62 -70 5 -13 4 -14 -4 -3 -15 21 -34 4 -22 -19 9 -16 7
-18 -10 -15 -11 2 -20 0 -20 -6 0 -5 -4 -8 -9 -6 -5 1 -16 -7 -24 -17 -11 -15
-16 -16 -22 -6 -5 8 -4 11 2 7 6 -4 16 7 22 25 6 17 14 28 17 25 10 -10 36 22
28 34 -4 7 -3 9 3 6 11 -7 83 57 83 74 0 6 5 7 10 4 6 -3 13 1 16 9 9 24 13
19 11 -14z m213 16 c0 -9 10 -13 29 -11 23 2 28 -1 23 -13 -3 -9 -7 -11 -9 -5
-2 6 -13 9 -23 6 -12 -3 -22 1 -26 11 -3 9 -11 13 -17 9 -6 -3 -7 -1 -3 5 10
16 26 15 26 -2z m2613 -13 c-3 -24 -2 -25 6 -8 11 24 12 2 2 -35 -7 -23 -8
-23 -15 13 -4 20 -4 42 -1 47 10 16 12 12 8 -17z m-913 -2 c-5 -11 -15 -23
-21 -27 -6 -3 -3 5 6 20 20 30 30 35 15 7z m898 -41 c0 -9 -3 -7 -8 5 -8 18
-9 17 -9 -7 -1 -16 -5 -28 -10 -28 -5 0 -5 16 0 38 5 20 9 42 10 47 1 13 17
-36 17 -55z m99 38 c-3 -8 -6 -5 -6 6 -1 11 2 17 5 13 3 -3 4 -12 1 -19z m830
-10 c-3 -7 -5 -2 -5 12 0 14 2 19 5 13 2 -7 2 -19 0 -25z m120 0 c-3 -7 -5 -2
-5 12 0 14 2 19 5 13 2 -7 2 -19 0 -25z m70 10 c-3 -8 -6 -5 -6 6 -1 11 2 17
5 13 3 -3 4 -12 1 -19z m980 0 c-3 -8 -6 -5 -6 6 -1 11 2 17 5 13 3 -3 4 -12
1 -19z m-4973 -4 c3 -8 2 -12 -4 -9 -6 3 -10 10 -10 16 0 14 7 11 14 -7z m518
7 c8 11 9 11 6 1 -4 -16 -22 -18 -24 -2 -2 7 -1 6 3 -1 4 -8 8 -7 15 2z m2955
-38 c-3 -10 -5 -2 -5 17 0 19 2 27 5 18 2 -10 2 -26 0 -35z m140 25 c-3 -8 -6
-5 -6 6 -1 11 2 17 5 13 3 -3 4 -12 1 -19z m50 -15 c-3 -10 -5 -4 -5 12 0 17
2 24 5 18 2 -7 2 -21 0 -30z m70 0 c-3 -10 -5 -4 -5 12 0 17 2 24 5 18 2 -7 2
-21 0 -30z m120 0 c-3 -10 -5 -4 -5 12 0 17 2 24 5 18 2 -7 2 -21 0 -30z m270
15 c-3 -8 -6 -5 -6 6 -1 11 2 17 5 13 3 -3 4 -12 1 -19z m100 -15 c-3 -10 -5
-4 -5 12 0 17 2 24 5 18 2 -7 2 -21 0 -30z m-4087 17 c0 -5 -5 -10 -11 -10 -5
0 -7 5 -4 10 3 6 8 10 11 10 2 0 4 -4 4 -10z m2155 -6 c10 -14 16 -14 36 -5
21 11 22 11 7 -2 -20 -16 -25 -32 -6 -21 7 5 8 3 3 -6 -6 -10 -4 -12 8 -7 10
4 17 2 17 -4 0 -6 8 -8 18 -5 10 4 7 -2 -8 -14 -14 -11 -29 -20 -34 -20 -6 0
-1 7 10 16 19 15 18 15 -4 11 -14 -3 -20 -1 -15 6 4 7 0 8 -11 4 -11 -4 -15
-3 -10 4 3 6 -4 21 -17 35 -12 13 -19 24 -14 24 4 0 13 -7 20 -16z m1492 -6
c-3 -8 -6 -5 -6 6 -1 11 2 17 5 13 3 -3 4 -12 1 -19z m1220 0 c-3 -8 -6 -5 -6
6 -1 11 2 17 5 13 3 -3 4 -12 1 -19z m-2237 -23 c0 -5 -5 -3 -10 5 -5 8 -10
20 -10 25 0 6 5 3 10 -5 5 -8 10 -19 10 -25z m65 -5 c-4 -17 -9 -29 -12 -26
-3 2 -2 19 2 36 4 17 9 29 12 26 3 -2 2 -19 -2 -36z m92 18 c-3 -8 -6 -5 -6 6
-1 11 2 17 5 13 3 -3 4 -12 1 -19z m790 -10 c-3 -7 -5 -2 -5 12 0 14 2 19 5
13 2 -7 2 -19 0 -25z m380 10 c-3 -8 -6 -5 -6 6 -1 11 2 17 5 13 3 -3 4 -12 1
-19z m610 0 c-3 -8 -6 -5 -6 6 -1 11 2 17 5 13 3 -3 4 -12 1 -19z m-3950 -10
c-3 -8 -6 -5 -6 6 -1 11 2 17 5 13 3 -3 4 -12 1 -19z m1313 18 c0 -2 -7 -7
-16 -10 -8 -3 -12 -2 -9 4 6 10 25 14 25 6z m1457 -78 c-2 -18 -4 -6 -4 27 0
33 2 48 4 33 2 -15 2 -42 0 -60z m70 60 c-3 -8 -6 -5 -6 6 -1 11 2 17 5 13 3
-3 4 -12 1 -19z m240 -30 c-2 -13 -4 -5 -4 17 -1 22 1 32 4 23 2 -10 2 -28 0
-40z m595 27 c3 -13 1 -22 -3 -19 -9 5 -13 44 -5 44 2 0 6 -11 8 -25z m-4177
5 c-3 -5 -10 -10 -16 -10 -5 0 -9 5 -9 10 0 6 7 10 16 10 8 0 12 -4 9 -10z
m2135 0 c0 -5 -5 -10 -11 -10 -5 0 -7 5 -4 10 3 6 8 10 11 10 2 0 4 -4 4 -10z
m1497 -37 c-3 -10 -5 -2 -5 17 0 19 2 27 5 18 2 -10 2 -26 0 -35z m390 25 c-3
-8 -6 -5 -6 6 -1 11 2 17 5 13 3 -3 4 -12 1 -19z m180 0 c-3 -8 -6 -5 -6 6 -1
11 2 17 5 13 3 -3 4 -12 1 -19z m150 0 c-3 -8 -6 -5 -6 6 -1 11 2 17 5 13 3
-3 4 -12 1 -19z m-2518 -29 c-13 -10 -19 -19 -13 -19 5 0 18 -6 29 -13 14 -11
15 -16 5 -22 -9 -6 -11 -4 -5 5 5 8 3 11 -6 8 -8 -3 -13 -10 -12 -16 2 -6 -6
-10 -17 -9 -11 1 -20 5 -20 9 0 5 -10 3 -22 -3 l-21 -12 21 28 c12 15 22 34
22 41 0 7 10 18 21 25 15 8 19 8 15 0 -4 -6 -2 -11 3 -11 6 0 11 8 12 18 0 12
2 13 6 3 3 -8 -5 -22 -18 -32z m1728 -6 c-3 -10 -5 -2 -5 17 0 19 2 27 5 18 2
-10 2 -26 0 -35z m90 25 c-3 -8 -6 -5 -6 6 -1 11 2 17 5 13 3 -3 4 -12 1 -19z
m400 0 c-3 -8 -6 -5 -6 6 -1 11 2 17 5 13 3 -3 4 -12 1 -19z m100 0 c-3 -8 -6
-5 -6 6 -1 11 2 17 5 13 3 -3 4 -12 1 -19z m-2125 -20 c-8 -8 -9 -4 -5 13 4
13 8 18 11 10 2 -7 -1 -18 -6 -23z m1725 10 c-3 -8 -6 -5 -6 6 -1 11 2 17 5
13 3 -3 4 -12 1 -19z m100 -15 c-3 -10 -5 -4 -5 12 0 17 2 24 5 18 2 -7 2 -21
0 -30z m100 0 c-3 -10 -5 -4 -5 12 0 17 2 24 5 18 2 -7 2 -21 0 -30z m873 33
c0 -2 -7 -7 -16 -10 -8 -3 -12 -2 -9 4 6 10 25 14 25 6z m-4777 -13 c-7 -2
-19 -2 -25 0 -7 3 -2 5 12 5 14 0 19 -2 13 -5z m3244 -45 c-2 -13 -4 -5 -4 17
-1 22 1 32 4 23 2 -10 2 -28 0 -40z m50 30 c-3 -8 -6 -5 -6 6 -1 11 2 17 5 13
3 -3 4 -12 1 -19z m120 0 c-3 -8 -6 -5 -6 6 -1 11 2 17 5 13 3 -3 4 -12 1 -19z
m220 0 c-3 -8 -6 -5 -6 6 -1 11 2 17 5 13 3 -3 4 -12 1 -19z m220 -10 c-3 -7
-5 -2 -5 12 0 14 2 19 5 13 2 -7 2 -19 0 -25z m100 10 c-3 -8 -6 -5 -6 6 -1
11 2 17 5 13 3 -3 4 -12 1 -19z m-4170 6 c-3 -3 -12 -4 -19 -1 -8 3 -5 6 6 6
11 1 17 -2 13 -5z m1933 2 c0 -2 -7 -7 -16 -10 -8 -3 -12 -2 -9 4 6 10 25 14
25 6z m203 -3 c9 -8 -12 -33 -27 -33 -6 0 -3 5 8 11 15 9 16 13 5 20 -8 5 -9
9 -3 9 6 0 14 -3 17 -7z m1544 -30 c-3 -10 -5 -4 -5 12 0 17 2 24 5 18 2 -7 2
-21 0 -30z m520 15 c-3 -8 -6 -5 -6 6 -1 11 2 17 5 13 3 -3 4 -12 1 -19z
m-4257 -8 c-11 -21 -30 -19 -30 3 0 8 3 8 9 -1 7 -11 9 -11 14 2 4 9 9 16 12
16 3 0 1 -9 -5 -20z m227 -2 c-3 -8 -6 -5 -6 6 -1 11 2 17 5 13 3 -3 4 -12 1
-19z m3320 0 c-3 -8 -6 -5 -6 6 -1 11 2 17 5 13 3 -3 4 -12 1 -19z m290 -56
c-2 -15 -4 -2 -4 28 0 30 2 43 4 28 2 -16 2 -40 0 -56z m320 46 c-3 -7 -5 -2
-5 12 0 14 2 19 5 13 2 -7 2 -19 0 -25z m50 10 c-3 -8 -6 -5 -6 6 -1 11 2 17
5 13 3 -3 4 -12 1 -19z m-2264 0 c-2 -5 1 -8 7 -8 6 0 8 -5 5 -10 -4 -6 -12
-4 -21 5 -16 15 -39 11 -29 -5 3 -5 1 -11 -4 -14 -5 -4 -8 2 -6 11 2 10 4 21
4 24 1 4 12 6 25 5 13 0 22 -4 19 -8z m398 -10 c-5 -13 -9 -27 -9 -31 0 -5 -4
-12 -8 -15 -4 -4 -3 -1 1 7 6 11 4 13 -9 8 -9 -4 -15 -3 -12 2 3 5 -1 11 -9
15 -8 3 -15 11 -14 18 0 10 2 10 6 0 2 -6 9 -10 14 -6 5 3 9 0 9 -5 0 -19 17
-12 23 9 3 11 8 20 11 20 3 0 2 -10 -3 -22z m-2240 -15 c-12 -20 -14 -14 -5
12 4 9 9 14 11 11 3 -2 0 -13 -6 -23z m2064 0 c6 3 12 -1 12 -8 0 -10 -7 -10
-29 -3 -15 6 -28 17 -28 25 0 12 3 12 16 -2 9 -9 22 -14 29 -12z m79 15 c-2
-3 -1 -8 3 -11 5 -2 1 -2 -7 0 -8 2 -22 -6 -32 -19 l-17 -23 6 23 c3 12 10 22
17 22 6 0 5 4 -3 9 -10 7 -7 9 12 8 14 -1 23 -5 21 -9z m1373 -10 c-3 -8 -6
-5 -6 6 -1 11 2 17 5 13 3 -3 4 -12 1 -19z m490 -10 c-3 -8 -6 -5 -6 6 -1 11
2 17 5 13 3 -3 4 -12 1 -19z m963 -13 c0 -5 -5 -3 -10 5 -5 8 -10 20 -10 25 0
6 5 3 10 -5 5 -8 10 -19 10 -25z m-5100 21 c0 -3 -4 -8 -10 -11 -5 -3 -10 -1
-10 4 0 6 5 11 10 11 6 0 10 -2 10 -4z m110 -3 c0 -5 -5 -15 -11 -23 -9 -13
-10 -13 -6 2 3 9 1 19 -6 22 -7 2 -4 5 6 5 9 1 17 -2 17 -6z m71 -8 c5 4 6 -1
2 -10 -5 -13 -7 -14 -14 -3 -7 10 -9 8 -10 -7 0 -11 -3 -14 -6 -7 -2 6 -10 9
-16 6 -7 -4 -3 2 8 13 11 11 22 16 23 11 2 -4 8 -6 13 -3z m2129 1 c0 -2 -8
-10 -17 -17 -16 -13 -17 -12 -4 4 13 16 21 21 21 13z m1300 -36 c0 -13 -1 -13
-10 0 -5 8 -10 22 -10 30 0 13 1 13 10 0 5 -8 10 -22 10 -30z m507 18 c-3 -8
-6 -5 -6 6 -1 11 2 17 5 13 3 -3 4 -12 1 -19z m-3610 -10 c-3 -8 -6 -5 -6 6
-1 11 2 17 5 13 3 -3 4 -12 1 -19z m1458 2 c-10 -11 -22 -20 -28 -20 -5 0 1 9
14 20 31 25 37 25 14 0z m1887 -9 c2 -17 1 -28 -4 -25 -8 5 -12 54 -4 54 2 0
6 -13 8 -29z m655 7 c-3 -8 -6 -5 -6 6 -1 11 2 17 5 13 3 -3 4 -12 1 -19z
m-2320 -11 c17 6 27 -17 13 -30 -10 -9 -12 -8 -6 6 4 13 2 17 -6 15 -7 -3 -13
-10 -13 -16 0 -5 -4 -14 -8 -19 -5 -4 -8 -3 -7 2 1 6 1 12 0 15 -1 3 -3 16 -4
29 -2 19 -1 21 8 9 6 -8 16 -13 23 -11z m123 8 c-14 -17 -1 -20 18 -5 7 5 6 3
-2 -6 -18 -21 -43 -9 -25 12 6 8 14 14 16 14 3 0 0 -7 -7 -15z m1267 -32 c-3
-10 -5 -2 -5 17 0 19 2 27 5 18 2 -10 2 -26 0 -35z m-3720 0 c-3 -10 -5 -4 -5
12 0 17 2 24 5 18 2 -7 2 -21 0 -30z m2133 33 c0 -2 -8 -10 -17 -17 -16 -13
-17 -12 -4 4 13 16 21 21 21 13z m260 0 c0 -2 -8 -10 -17 -17 -16 -13 -17 -12
-4 4 13 16 21 21 21 13z m1297 -43 c-3 -10 -5 -2 -5 17 0 19 2 27 5 18 2 -10
2 -26 0 -35z m200 25 c-3 -8 -6 -5 -6 6 -1 11 2 17 5 13 3 -3 4 -12 1 -19z
m150 -15 c-3 -10 -5 -4 -5 12 0 17 2 24 5 18 2 -7 2 -21 0 -30z m590 5 c-3 -8
-6 -5 -6 6 -1 11 2 17 5 13 3 -3 4 -12 1 -19z m-4344 -5 c-3 -7 -6 -13 -8 -13
-2 0 -5 6 -8 13 -3 8 1 14 8 14 7 0 11 -6 8 -14z m4164 -15 c-3 -7 -5 -2 -5
12 0 14 2 19 5 13 2 -7 2 -19 0 -25z m800 10 c-3 -8 -6 -5 -6 6 -1 11 2 17 5
13 3 -3 4 -12 1 -19z m-4929 -13 c-3 -3 -9 2 -12 12 -6 14 -5 15 5 6 7 -7 10
-15 7 -18z m49 19 c-3 -3 -12 -4 -19 -1 -8 3 -5 6 6 6 11 1 17 -2 13 -5z
m4050 -16 c-3 -8 -6 -5 -6 6 -1 11 2 17 5 13 3 -3 4 -12 1 -19z m80 0 c-3 -8
-6 -5 -6 6 -1 11 2 17 5 13 3 -3 4 -12 1 -19z m-330 -25 c-3 -10 -5 -4 -5 12
0 17 2 24 5 18 2 -7 2 -21 0 -30z m360 5 c-3 -8 -6 -5 -6 6 -1 11 2 17 5 13 3
-3 4 -12 1 -19z m-319 -2 c-7 -8 -15 -12 -17 -11 -5 6 10 25 20 25 5 0 4 -6
-3 -14z m89 -18 c-3 -7 -5 -2 -5 12 0 14 2 19 5 13 2 -7 2 -19 0 -25z m550 -5
c-3 -10 -5 -4 -5 12 0 17 2 24 5 18 2 -7 2 -21 0 -30z m-4601 2 c-6 -18 -26
-11 -26 8 0 7 4 6 10 -3 8 -13 10 -12 10 4 0 11 3 17 6 13 4 -3 4 -13 0 -22z
m3621 3 c-3 -8 -6 -5 -6 6 -1 11 2 17 5 13 3 -3 4 -12 1 -19z m200 0 c-3 -8
-6 -5 -6 6 -1 11 2 17 5 13 3 -3 4 -12 1 -19z m-1722 2 c-3 -5 -12 -10 -18
-10 -7 0 -6 4 3 10 19 12 23 12 15 0z m1622 -27 c-3 -10 -5 -5 -5 12 0 17 2
24 5 18 2 -7 2 -21 0 -30z m150 15 c-3 -8 -6 -5 -6 6 -1 11 2 17 5 13 3 -3 4
-12 1 -19z m-200 -20 c-3 -7 -5 -2 -5 12 0 14 2 19 5 13 2 -7 2 -19 0 -25z"/>
<path d="M880 1190 c0 -5 7 -10 15 -10 8 0 15 5 15 10 0 6 -7 10 -15 10 -8 0
-15 -4 -15 -10z"/>
<path d="M2617 723 c-47 -75 -50 -82 -26 -78 26 5 32 11 35 33 2 13 -2 12 -17
-7 -24 -30 -25 -17 0 17 24 36 43 72 36 72 -2 0 -15 -17 -28 -37z"/>
<path d="M626 701 c-4 -7 -5 -15 -2 -18 9 -9 19 4 14 18 -4 11 -6 11 -12 0z"/>
<path d="M2658 538 c-4 -12 -30 -20 -62 -19 -18 0 -17 -1 3 -15 11 -8 26 -12
33 -8 6 4 8 3 4 -4 -3 -6 3 -13 14 -17 l20 -6 -20 -27 -21 -26 23 -13 c31 -17
38 -16 39 5 0 10 3 12 6 5 3 -9 11 -8 29 4 19 12 22 18 12 24 -21 14 -31 10
-24 -7 5 -12 2 -15 -10 -10 -8 3 -23 2 -33 -3 -13 -7 -18 -6 -18 4 0 7 5 11
11 9 7 -3 20 2 30 9 18 13 18 15 -12 33 -33 19 -44 38 -17 28 8 -4 15 -10 15
-16 0 -5 5 -6 10 -3 6 3 10 1 10 -5 0 -6 5 -8 12 -4 7 4 8 3 4 -4 -11 -18 2
-14 39 11 21 14 31 28 26 35 -5 9 -13 8 -29 -4 -12 -8 -19 -20 -16 -26 4 -6
-2 -6 -15 1 -24 13 -28 23 -6 15 8 -4 15 -1 15 5 0 10 -14 15 -32 12 -5 0 -8
3 -8 8 0 14 -28 21 -32 9z m107 -38 c-3 -5 -11 -10 -16 -10 -6 0 -7 5 -4 10 3
6 11 10 16 10 6 0 7 -4 4 -10z"/>
<path d="M2530 500 c-6 -11 -7 -20 -3 -20 5 0 14 9 21 20 7 11 8 20 2 20 -5 0
-14 -9 -20 -20z"/>
<path d="M2574 488 c-4 -7 -3 -8 4 -4 7 4 12 2 12 -4 0 -6 5 -8 10 -5 11 7 4
25 -10 25 -5 0 -12 -5 -16 -12z"/>
<path d="M2867 460 c-7 -28 23 -43 43 -22 13 14 12 15 -4 9 -15 -6 -17 -5 -8
6 7 8 9 17 5 20 -13 13 -31 7 -36 -13z"/>
<path d="M2795 461 c3 -6 -3 -15 -12 -21 -17 -11 -17 -11 0 -6 10 3 23 6 28 6
15 0 10 17 -7 24 -8 3 -12 2 -9 -3z"/>
<path d="M2655 340 c-3 -5 -2 -10 4 -10 5 0 13 5 16 10 3 6 2 10 -4 10 -5 0
-13 -4 -16 -10z"/>
<path d="M2566 331 c-3 -5 1 -12 10 -15 22 -8 25 -4 9 11 -8 7 -16 9 -19 4z"/>
<path d="M2766 319 c-12 -12 -15 -19 -7 -19 16 0 44 27 34 33 -5 2 -17 -4 -27
-14z"/>
<path d="M2671 313 c-9 -18 10 -48 23 -36 3 4 6 1 6 -5 0 -7 -7 -12 -16 -12
-10 0 -14 -6 -11 -14 3 -8 1 -17 -6 -19 -7 -2 -8 -8 -4 -13 10 -11 28 17 19
31 -3 5 2 4 11 -4 14 -11 17 -11 18 0 1 8 2 19 4 24 1 6 3 16 3 24 2 11 5 11
19 0 12 -10 14 -10 9 -1 -4 6 -20 19 -36 27 -27 14 -30 14 -39 -2z m36 -17 c0
-8 -6 -12 -15 -9 -11 5 -11 7 0 14 7 5 13 9 14 9 0 0 1 -6 1 -14z"/>
<path d="M2630 300 c-23 -18 -21 -21 12 -24 6 -1 13 9 14 22 5 27 5 26 -26 2z"/>
<path d="M2615 260 c-3 -5 -1 -10 4 -10 6 0 11 5 11 10 0 6 -2 10 -4 10 -3 0
-8 -4 -11 -10z"/>
<path d="M2588 157 c-11 -9 -14 -18 -7 -28 7 -11 9 -11 9 4 0 9 7 17 15 17 8
0 15 5 15 10 0 13 -11 12 -32 -3z"/>
<path d="M443 480 c-2 -24 12 -27 21 -4 8 22 8 24 -7 24 -7 0 -13 -9 -14 -20z"/>
<path d="M1070 455 c8 -11 15 -21 16 -23 1 -2 5 5 8 15 4 9 4 14 0 10 -4 -4
-14 -1 -23 6 -14 11 -15 10 -1 -8z"/>
<path d="M410 395 c0 -8 2 -15 4 -15 2 0 6 7 10 15 3 8 1 15 -4 15 -6 0 -10
-7 -10 -15z"/>
<path d="M2326 325 c-11 -8 -15 -15 -10 -15 6 0 19 7 30 15 10 8 15 14 9 14
-5 0 -19 -6 -29 -14z"/>
<path d="M2230 219 c0 -5 5 -7 10 -4 6 3 10 8 10 11 0 2 -4 4 -10 4 -5 0 -10
-5 -10 -11z"/>
<path d="M2220 191 c0 -14 18 -23 31 -15 8 4 7 9 -2 15 -18 11 -29 11 -29 0z"/>
<path d="M2730 4018 c0 -18 18 -34 28 -24 3 4 -2 14 -11 23 -16 16 -17 16 -17
1z"/>
<path d="M3518 4012 c-5 -18 -3 -22 9 -20 9 2 18 10 20 18 4 12 3 13 -5 1 -8
-11 -11 -10 -14 5 -3 17 -5 16 -10 -4z"/>
<path d="M3596 4017 c3 -10 9 -15 12 -12 3 3 0 11 -7 18 -10 9 -11 8 -5 -6z"/>
<path d="M3115 3798 c-16 -5 -43 -16 -60 -23 -16 -7 -52 -16 -79 -20 -36 -5
-50 -12 -53 -26 -3 -10 -9 -19 -13 -19 -4 0 -17 -9 -30 -20 -13 -11 -18 -20
-11 -20 6 0 16 -11 20 -23 11 -29 74 -61 101 -52 11 4 20 2 20 -4 0 -6 12 -11
26 -11 14 0 34 -5 45 -10 27 -15 255 -21 301 -9 46 12 94 51 102 84 8 31 8 35
0 34 -4 0 -10 4 -13 10 -6 10 -61 27 -181 57 -30 7 -56 18 -58 24 -2 5 -17 10
-34 10 -17 0 -36 6 -42 14 -8 10 -18 11 -41 4z"/>
<path d="M1821 3694 c0 -11 3 -14 6 -6 3 7 2 16 -1 19 -3 4 -6 -2 -5 -13z"/>
<path d="M1821 3648 c-1 -19 4 -28 14 -28 8 0 15 -8 16 -17 0 -11 3 -13 6 -5
2 6 10 9 16 6 7 -3 0 4 -15 17 -14 13 -28 31 -31 39 -3 8 -6 3 -6 -12z"/>
<path d="M4061 3575 c1 -19 18 -51 18 -35 0 8 -4 22 -9 30 -5 8 -9 11 -9 5z"/>
<path d="M1919 3548 c4 -13 6 -29 3 -37 -3 -8 1 -12 9 -9 8 3 16 13 17 23 3
10 0 15 -7 11 -6 -4 -11 -1 -11 8 0 8 -4 18 -10 21 -6 4 -7 -2 -1 -17z"/>
<path d="M1824 3517 c5 -22 3 -25 -13 -22 -14 3 -18 -1 -14 -16 3 -10 9 -16
14 -13 5 3 9 -1 9 -8 0 -9 3 -9 10 2 13 21 12 67 -1 76 -8 5 -10 -1 -5 -19z"/>
<path d="M1890 3529 c0 -6 -7 -9 -15 -6 -20 8 0 -43 25 -63 12 -9 20 -29 22
-50 2 -31 48 -108 48 -81 0 6 -9 19 -19 28 -11 9 -17 21 -14 26 3 5 9 4 13 -3
5 -7 7 0 6 17 -1 17 -7 38 -15 47 -12 14 -11 16 5 16 16 1 14 4 -8 21 -16 11
-28 29 -28 40 0 10 -4 19 -10 19 -5 0 -10 -5 -10 -11z"/>
<path d="M2470 3496 c0 -9 5 -16 10 -16 6 0 10 4 10 9 0 6 -4 13 -10 16 -5 3
-10 -1 -10 -9z"/>
<path d="M4052 3490 c0 -14 2 -19 5 -12 2 6 2 18 0 25 -3 6 -5 1 -5 -13z"/>
<path d="M4071 3474 c0 -11 3 -14 6 -6 3 7 2 16 -1 19 -3 4 -6 -2 -5 -13z"/>
<path d="M3970 3445 c0 -8 4 -15 10 -15 5 0 7 7 4 15 -4 8 -8 15 -10 15 -2 0
-4 -7 -4 -15z"/>
<path d="M4233 3453 c-7 -2 -13 -12 -12 -21 0 -11 2 -12 6 -4 2 6 8 10 12 8 4
-3 8 1 8 9 0 8 -1 15 -1 14 -1 0 -7 -3 -13 -6z"/>
<path d="M2460 3424 c0 -8 -4 -12 -10 -9 -5 3 -10 1 -10 -4 0 -6 6 -11 13 -11
21 0 40 17 33 29 -10 16 -26 13 -26 -5z"/>
<path d="M2277 3371 c-4 -17 -3 -21 5 -13 5 5 8 16 6 23 -3 8 -7 3 -11 -10z"/>
<path d="M2405 3371 c-3 -6 -1 -11 4 -11 6 0 11 -7 11 -15 0 -8 5 -15 10 -15
14 0 12 11 -4 33 -9 12 -16 14 -21 8z"/>
<path d="M2308 3359 c-10 -5 -18 -18 -18 -27 0 -13 2 -14 9 -3 7 11 9 11 14 0
4 -10 6 -8 6 4 1 10 5 15 11 12 6 -3 7 1 4 9 -3 9 -7 16 -8 16 0 0 -9 -5 -18
-11z"/>
<path d="M1926 3337 c3 -10 9 -15 12 -12 3 3 0 11 -7 18 -10 9 -11 8 -5 -6z"/>
<path d="M2360 3330 c0 -5 5 -10 10 -10 6 0 10 5 10 10 0 6 -4 10 -10 10 -5 0
-10 -4 -10 -10z"/>
<path d="M2226 3284 c-9 -33 0 -44 9 -12 4 13 13 26 19 30 7 5 5 8 -5 8 -10 0
-20 -11 -23 -26z"/>
<path d="M2595 3270 c-3 -5 -1 -10 4 -10 6 0 11 5 11 10 0 6 -2 10 -4 10 -3 0
-8 -4 -11 -10z"/>
<path d="M2110 3266 c0 -2 8 -10 18 -17 15 -13 16 -12 3 4 -13 16 -21 21 -21
13z"/>
<path d="M3570 3250 c0 -21 17 -46 25 -38 4 4 0 17 -9 30 -10 14 -16 17 -16 8z"/>
<path d="M1952 3210 c0 -14 2 -19 5 -12 2 6 2 18 0 25 -3 6 -5 1 -5 -13z"/>
<path d="M2710 3220 c0 -5 5 -10 10 -10 6 0 10 5 10 10 0 6 -4 10 -10 10 -5 0
-10 -4 -10 -10z"/>
<path d="M2806 3202 c-2 -4 -1 -14 4 -22 7 -11 9 -9 7 8 -1 24 -3 26 -11 14z"/>
<path d="M1935 2970 c3 -5 8 -10 11 -10 2 0 4 5 4 10 0 6 -5 10 -11 10 -5 0
-7 -4 -4 -10z"/>
<path d="M4288 2773 c7 -3 16 -2 19 1 4 3 -2 6 -13 5 -11 0 -14 -3 -6 -6z"/>
<path d="M5361 2713 c-6 -27 -16 -63 -20 -81 -12 -42 5 -52 17 -10 11 36 25
138 19 138 -2 0 -9 -21 -16 -47z"/>
<path d="M5537 2700 c-26 -62 -33 -104 -16 -98 14 5 41 91 36 121 -1 12 -8 4
-20 -23z"/>
<path d="M5172 2656 c-8 -18 -9 -33 -3 -44 8 -14 10 -13 16 10 4 14 5 34 3 44
-2 14 -6 12 -16 -10z"/>
<path d="M4997 2650 c-4 -14 -6 -41 -6 -60 l1 -35 9 40 c12 48 8 96 -4 55z"/>
<path d="M4643 2600 c0 -25 2 -35 4 -22 2 12 2 32 0 45 -2 12 -4 2 -4 -23z"/>
<path d="M5662 2548 c-9 -4 8 -7 38 -7 30 0 64 4 75 9 24 10 -86 9 -113 -2z"/>
<path d="M5498 2539 c-17 -11 14 -15 62 -9 l45 6 -48 5 c-27 2 -53 1 -59 -2z"/>
<path d="M5315 2520 c-6 -9 143 -3 154 6 2 2 -30 4 -72 4 -42 0 -79 -4 -82
-10z"/>
<path d="M5144 2509 c-3 -5 6 -9 20 -9 31 0 34 6 6 13 -11 3 -23 1 -26 -4z"/>
<path d="M5213 2503 c9 -2 23 -2 30 0 6 3 -1 5 -18 5 -16 0 -22 -2 -12 -5z"/>
<path d="M4970 2490 c0 -5 6 -10 14 -10 8 0 18 5 21 10 3 6 -3 10 -14 10 -12
0 -21 -4 -21 -10z"/>
<path d="M4783 2478 c-10 -4 6 -7 40 -7 31 -1 57 1 57 3 0 8 -80 11 -97 4z"/>
<path d="M4658 2463 c12 -2 32 -2 45 0 12 2 2 4 -23 4 -25 0 -35 -2 -22 -4z"/>
<path d="M4593 2453 c9 -2 23 -2 30 0 6 3 -1 5 -18 5 -16 0 -22 -2 -12 -5z"/>
<path d="M5933 2441 c-18 -19 -37 -27 -85 -35 -23 -4 -28 -1 -28 15 0 25 -20
25 -27 0 -3 -11 -12 -20 -21 -20 -10 0 -32 -3 -50 -7 -28 -5 -34 -3 -39 15 -6
24 -23 28 -23 5 0 -8 -15 -20 -32 -26 l-33 -12 35 -7 c19 -4 42 -3 52 2 12 6
37 6 68 1 31 -6 53 -6 56 0 3 5 33 8 65 7 32 -1 62 1 66 4 3 4 18 7 32 7 14 0
33 5 41 10 17 11 9 13 -33 10 -23 -1 -28 2 -25 17 3 14 13 18 50 18 25 0 50 3
54 8 4 4 -18 7 -49 7 -42 0 -61 -5 -74 -19z"/>
<path d="M4458 2443 c12 -2 30 -2 40 0 9 3 -1 5 -23 4 -22 0 -30 -2 -17 -4z"/>
<path d="M4160 2419 c0 -5 5 -7 10 -4 6 3 10 8 10 11 0 2 -4 4 -10 4 -5 0 -10
-5 -10 -11z"/>
<path d="M5530 2381 c0 -12 5 -21 10 -21 6 0 10 6 10 14 0 8 -4 18 -10 21 -5
3 -10 -3 -10 -14z"/>
<path d="M5805 2264 l-40 -13 53 3 c56 3 74 11 45 18 -10 2 -36 -1 -58 -8z"/>
<path d="M4846 2244 c-9 -22 -8 -24 9 -24 8 0 15 6 15 14 0 22 -17 28 -24 10z"/>
<path d="M4580 2216 c0 -8 4 -17 9 -20 11 -7 33 18 24 27 -12 12 -33 7 -33 -7z"/>
<path d="M4720 2220 c0 -5 5 -10 10 -10 6 0 10 5 10 10 0 6 -4 10 -10 10 -5 0
-10 -4 -10 -10z"/>
<path d="M4461 2204 c0 -11 3 -14 6 -6 3 7 2 16 -1 19 -3 4 -6 -2 -5 -13z"/>
<path d="M5400 2153 c-7 -38 -17 -78 -21 -90 -5 -13 -5 -23 0 -23 4 0 15 30
24 68 8 37 19 77 22 90 4 12 3 22 -3 22 -5 0 -15 -30 -22 -67z"/>
<path d="M5246 2198 c-12 -43 -21 -118 -15 -118 4 0 13 26 19 58 7 31 14 60
17 65 2 4 -1 7 -7 7 -6 0 -12 -6 -14 -12z"/>
<path d="M5083 2178 c2 -7 -2 -34 -9 -60 -7 -27 -9 -50 -4 -53 4 -3 10 10 13
28 4 17 9 47 13 65 4 22 2 32 -6 32 -6 0 -10 -6 -7 -12z"/>
<path d="M0 2170 c0 -5 5 -10 11 -10 5 0 7 5 4 10 -3 6 -8 10 -11 10 -2 0 -4
-4 -4 -10z"/>
<path d="M4920 2148 c0 -13 -3 -34 -7 -48 -3 -14 -3 -23 0 -20 11 10 25 90 16
90 -5 0 -9 -10 -9 -22z"/>
<path d="M4762 2140 c0 -14 2 -19 5 -12 2 6 2 18 0 25 -3 6 -5 1 -5 -13z"/>
<path d="M196 2131 c-3 -5 1 -12 10 -15 12 -5 15 -16 12 -49 -4 -42 -1 -50 37
-88 11 -11 31 -41 45 -66 28 -51 43 -59 48 -25 2 12 10 22 19 22 12 0 15 8 10
39 -5 43 -7 46 -86 132 -50 55 -82 72 -95 50z"/>
<path d="M40 2120 c0 -5 10 -10 23 -10 18 0 19 2 7 10 -19 13 -30 13 -30 0z"/>
<path d="M4595 2100 c-3 -5 -1 -10 4 -10 6 0 11 5 11 10 0 6 -2 10 -4 10 -3 0
-8 -4 -11 -10z"/>
<path d="M4752 2085 c0 -16 2 -22 5 -12 2 9 2 23 0 30 -3 6 -5 -1 -5 -18z"/>
<path d="M4910 2059 c0 -5 5 -7 10 -4 6 3 10 8 10 11 0 2 -4 4 -10 4 -5 0 -10
-5 -10 -11z"/>
<path d="M2640 2025 c7 -8 20 -15 29 -15 13 1 13 3 -3 15 -26 19 -42 19 -26 0z"/>
<path d="M6085 1999 c-4 -6 -5 -12 -2 -15 2 -3 7 2 10 11 7 17 1 20 -8 4z"/>
<path d="M0 1956 c0 -2 7 -9 15 -16 9 -7 15 -8 15 -2 0 5 -7 12 -15 16 -8 3
-15 4 -15 2z"/>
<path d="M35 1890 c3 -5 10 -10 16 -10 5 0 9 5 9 10 0 6 -7 10 -16 10 -8 0
-12 -4 -9 -10z"/>
<path d="M70 1870 c0 -5 5 -10 11 -10 5 0 7 5 4 10 -3 6 -8 10 -11 10 -2 0 -4
-4 -4 -10z"/>
<path d="M3345 1800 c-3 -5 -1 -10 4 -10 6 0 11 5 11 10 0 6 -2 10 -4 10 -3 0
-8 -4 -11 -10z"/>
<path d="M3120 1780 c0 -12 8 -12 35 0 18 8 17 9 -7 9 -16 1 -28 -3 -28 -9z"/>
<path d="M1286 574 c-3 -8 -2 -12 4 -9 6 3 10 1 10 -6 0 -6 -8 -9 -18 -7 -15
4 -19 -1 -19 -23 0 -25 3 -27 16 -17 37 28 61 52 61 62 0 6 -4 5 -9 -2 -7 -11
-11 -11 -24 2 -13 14 -16 14 -21 0z"/>
<path d="M2392 498 c-16 -16 -15 -25 1 -25 7 0 13 9 13 19 0 21 1 21 -14 6z"/>
<path d="M2344 464 c-4 -10 -14 -27 -22 -37 -8 -9 -13 -20 -10 -23 3 -3 16 11
28 31 12 20 20 39 16 42 -3 3 -9 -3 -12 -13z"/>
<path d="M2005 200 c-3 -11 -10 -20 -14 -20 -4 0 -13 -12 -20 -27 -9 -20 -14
-24 -21 -13 -5 9 -8 3 -7 -16 1 -16 6 -32 12 -36 11 -8 35 9 35 24 0 6 -7 5
-15 -2 -23 -19 -18 -7 20 51 37 56 46 60 19 8 -8 -17 -13 -33 -10 -36 3 -3 1
-15 -5 -25 -9 -16 -8 -19 3 -15 7 2 12 9 11 16 -2 6 8 18 22 27 14 9 22 20 19
26 -3 5 -13 4 -22 -4 -14 -11 -14 -8 2 16 15 23 16 30 5 37 -21 13 -27 11 -34
-11z"/>
<path d="M1912 100 c-7 -11 -9 -20 -4 -20 4 0 13 9 20 20 7 11 9 20 4 20 -4 0
-13 -9 -20 -20z"/>
<path d="M2054 86 c-15 -12 -17 -17 -6 -27 10 -11 14 -10 25 0 10 11 9 13 -5
8 -25 -9 -22 0 3 14 12 6 19 7 15 1 -7 -12 22 -25 36 -15 7 3 8 1 4 -5 -10
-16 0 -15 32 4 27 16 27 16 5 -2 -25 -21 -17 -49 10 -38 9 3 14 10 11 15 -3 6
-1 16 5 23 15 18 -16 31 -35 16 -9 -8 -21 -7 -43 4 -36 19 -33 19 -57 2z"/>
<path d="M1924 77 c-3 -8 -13 -13 -22 -11 -12 3 -22 -7 -33 -31 -13 -27 -13
-33 -3 -24 8 6 14 7 14 2 0 -5 61 -9 135 -9 74 0 135 3 135 7 0 5 -8 5 -17 2
-16 -6 -16 -5 -4 10 13 17 6 23 -21 18 -5 0 -8 4 -8 9 0 7 -7 7 -21 -1 -17 -9
-27 -6 -57 15 l-37 26 -17 -22 c-22 -29 -16 -34 16 -13 37 24 32 13 -6 -15
-39 -29 -79 -36 -70 -12 5 15 4 16 -13 2 -17 -14 -18 -14 -6 9 10 19 15 21 22
10 7 -12 9 -12 9 0 0 7 6 11 15 8 20 -8 26 5 9 21 -12 11 -15 10 -20 -1z m114
-43 c6 -11 14 -14 23 -8 8 5 25 9 37 9 22 1 23 0 5 -12 -12 -9 -19 -10 -21 -3
-3 8 -8 8 -17 0 -14 -12 -48 -3 -39 11 9 15 -13 10 -26 -6 -14 -16 -30 -20
-30 -7 0 8 36 30 52 31 4 1 11 -6 16 -15z"/>
<path d="M1926 41 c-4 -7 -5 -15 -2 -18 9 -9 19 4 14 18 -4 11 -6 11 -12 0z"/>
<path d="M2275 41 c-6 -11 9 -23 19 -14 9 9 7 23 -3 23 -6 0 -12 -4 -16 -9z"/>
<path d="M2176 17 c-17 -13 -16 -14 13 -15 20 0 31 4 28 11 -5 17 -21 19 -41
4z"/>
</g>
</svg>
